<?xml version="1.0" encoding="UTF-8" standalone="no"?>
<!-- Created with Inkscape (http://www.inkscape.org/) -->

<svg
   xmlns:dc="http://purl.org/dc/elements/1.1/"
   xmlns:cc="http://creativecommons.org/ns#"
   xmlns:rdf="http://www.w3.org/1999/02/22-rdf-syntax-ns#"
   xmlns:svg="http://www.w3.org/2000/svg"
   xmlns="http://www.w3.org/2000/svg"
   xmlns:sodipodi="http://sodipodi.sourceforge.net/DTD/sodipodi-0.dtd"
   xmlns:inkscape="http://www.inkscape.org/namespaces/inkscape"
   width="543.81238"
   height="124.32565"
   id="svg3965"
   version="1.1"
   inkscape:version="0.48.4 r9939"
   sodipodi:docname="logoBackground.svg"
   inkscape:export-filename="/home/rquast/workspace/formreturn/src/main/resources/com/ebstrada/formreturn/manager/ui/images/logoBackground.png"
   inkscape:export-xdpi="71.666626"
   inkscape:export-ydpi="71.666626">
  <defs
     id="defs3967" />
  <sodipodi:namedview
     id="base"
     pagecolor="#ffffff"
     bordercolor="#666666"
     borderopacity="1.0"
     inkscape:pageopacity="0.0"
     inkscape:pageshadow="2"
     inkscape:zoom="0.35"
     inkscape:cx="278.33551"
     inkscape:cy="-212.12289"
     inkscape:document-units="px"
     inkscape:current-layer="layer1"
     showgrid="false"
     fit-margin-top="20"
     fit-margin-left="20"
     fit-margin-right="20"
     fit-margin-bottom="20"
     inkscape:window-width="1855"
     inkscape:window-height="1056"
     inkscape:window-x="65"
     inkscape:window-y="24"
     inkscape:window-maximized="1" />
  <metadata
     id="metadata3970">
    <rdf:RDF>
      <cc:Work
         rdf:about="">
        <dc:format>image/svg+xml</dc:format>
        <dc:type
           rdf:resource="http://purl.org/dc/dcmitype/StillImage" />
        <dc:title></dc:title>
      </cc:Work>
    </rdf:RDF>
  </metadata>
  <g
     inkscape:label="Layer 1"
     inkscape:groupmode="layer"
     id="layer1"
     transform="translate(-96.664493,-195.91365)">
    <g
       id="g11802"
       transform="matrix(1.1,0,0,1.1,218.82743,336.73782)"
       inkscape:export-filename="/home/rquast/workspace/formreturn/src/main/resources/com/ebstrada/formreturn/manager/ui/images/logoBackground.png"
       inkscape:export-xdpi="72"
       inkscape:export-ydpi="72">
      <flowRoot
         transform="matrix(1.771561,0,0,1.771561,65.19925,-1360.8358)"
         style="font-size:40px;font-style:normal;font-variant:normal;font-weight:normal;font-stretch:normal;line-height:125%;letter-spacing:0px;word-spacing:0px;fill:#333333;fill-opacity:1;stroke:none;font-family:Rachana;-inkscape-font-specification:Rachana"
         id="flowRoot7131"
         xml:space="preserve"><flowRegion
           id="flowRegion7133"><rect
             style="fill:#333333;fill-opacity:1"
             y="732.04279"
             x="-12.020815"
             height="91.216805"
             width="558.61438"
             id="rect7135" /></flowRegion><flowPara
           style="font-size:9.03158283px;font-style:normal;font-variant:normal;font-weight:normal;font-stretch:normal;fill:#333333;fill-opacity:1;font-family:Exo;-inkscape-font-specification:Exo"
           id="flowPara7137">Free yourself from manual marking.</flowPara></flowRoot>      <path
         sodipodi:nodetypes="ccc"
         inkscape:connector-curvature="0"
         id="rect5789"
         d="m 343.99028,-104.1161 20.2638,0 0,20.263802"
         style="color:#000000;fill:none;stroke:#58a201;stroke-width:1.77156103;stroke-linecap:round;stroke-linejoin:round;stroke-miterlimit:4;stroke-opacity:1;stroke-dasharray:none;stroke-dashoffset:0;marker:none;visibility:visible;display:inline;overflow:visible;enable-background:accumulate" />
      <path
         sodipodi:nodetypes="ccc"
         inkscape:connector-curvature="0"
         id="rect5789-0"
         d="m -71.728514,-34.711056 -20.263806,0 0,-20.263806"
         style="color:#000000;fill:none;stroke:#58a201;stroke-width:1.77156103;stroke-linecap:round;stroke-linejoin:round;stroke-miterlimit:4;stroke-opacity:1;stroke-dasharray:none;stroke-dashoffset:0;marker:none;visibility:visible;display:inline;overflow:visible;enable-background:accumulate" />
      <path
         sodipodi:nodetypes="ccc"
         inkscape:connector-curvature="0"
         id="rect5789-0-9"
         d="m 364.25408,-54.974862 0,20.263806 -20.2638,0"
         style="color:#000000;fill:none;stroke:#4d4d4d;stroke-width:1.77156103;stroke-linecap:round;stroke-linejoin:round;stroke-miterlimit:4;stroke-opacity:1;stroke-dasharray:none;stroke-dashoffset:0;marker:none;visibility:visible;display:inline;overflow:visible;enable-background:accumulate" />
      <path
         sodipodi:nodetypes="ccc"
         inkscape:connector-curvature="0"
         id="rect5789-6"
         d="m -91.99232,-83.852298 0,-20.263802 20.263806,0"
         style="color:#000000;fill:none;stroke:#4d4d4d;stroke-width:1.77156103;stroke-linecap:round;stroke-linejoin:round;stroke-miterlimit:4;stroke-opacity:1;stroke-dasharray:none;stroke-dashoffset:0;marker:none;visibility:visible;display:inline;overflow:visible;enable-background:accumulate" />
      <g
         id="g11790">
        <path
           d="m 30.061448,-80.751074 c 0.463582,0 0.859083,0.196076 1.187105,0.586811 0.326836,0.391356 0.491148,0.863743 0.491148,1.417674 0,0.55395 -0.164224,1.026886 -0.491148,1.417728 -0.328022,0.391355 -0.723523,0.586776 -1.187105,0.586776 l -23.2072189,0 0,5.719502 c 0,0.586812 -0.1706013,1.083824 -0.5116976,1.491637 -0.3409192,0.407247 -0.7428687,0.610852 -1.2070177,0.610852 -0.4911476,0 -0.9071809,-0.203605 -1.2481356,-0.610852 -0.3415215,-0.407813 -0.5116622,-0.904825 -0.5116622,-1.491637 l 0,-7.235214 c -0.027459,-0.09744 -0.040923,-0.261111 -0.040923,-0.488792 0,-0.195296 0.012401,-0.342088 0.040923,-0.440108 l 0,-6.599685 c 0,-0.09744 0.00531,-0.187786 0.020727,-0.268746 0.012401,-0.08149 0.020727,-0.154834 0.020727,-0.219957 l 0,-0.04872 c 0,-0.554516 0.1631608,-1.019268 0.4911476,-1.393652 0.3274376,-0.37495 0.7223717,-0.562134 1.1865207,-0.562134 l 25.0485967,0 c 0.464149,0 0.85965,0.187272 1.18707,0.562134 0.327437,0.374384 0.491165,0.839136 0.491165,1.393652 0,0.553949 -0.163692,1.026885 -0.491165,1.417709 -0.32742,0.390807 -0.722921,0.586192 -1.18707,0.586192 l -23.2887989,0 0,3.568916 23.2072179,0"
           style="fill:#4d4d4d;fill-opacity:1;fill-rule:nonzero;stroke:none"
           id="path14911-1-1"
           inkscape:connector-curvature="0" />
        <path
           d="m 66.010991,-86.226491 0,14.81312 c 0,0.260543 -0.04092,0.504629 -0.122769,0.732912 -0.05527,0.489394 -0.232393,0.904825 -0.53223,1.246949 -0.300439,0.342673 -0.668357,0.513416 -1.10494,0.513416 l -25.048597,0 c -0.464149,0 -0.860235,-0.195297 -1.18707,-0.586776 -0.32804,-0.390824 -0.491148,-0.86376 -0.491148,-1.41771 -0.02746,-0.09744 -0.04039,-0.26111 -0.04039,-0.488791 l 0,-14.81312 c 0,-0.195315 0.0124,-0.342089 0.04039,-0.440091 l 0,-0.04872 c 0,-0.55395 0.163161,-1.026319 0.491148,-1.417692 0.326835,-0.390824 0.722921,-0.586812 1.18707,-0.586812 l 25.048597,0 c 0.436583,0 0.804501,0.171487 1.10494,0.513469 0.299872,0.342674 0.477064,0.758122 0.53223,1.246931 0.08149,0.260544 0.122769,0.504647 0.122769,0.732895 z m -25.048614,13.297408 21.569499,0 0,-11.781714 -21.569499,0 0,11.781714 z"
           style="fill:#4d4d4d;fill-opacity:1;fill-rule:nonzero;stroke:none"
           id="path14913-9-1"
           inkscape:connector-curvature="0" />
        <path
           d="m 99.504779,-73.271172 c 0.436566,0.196094 0.749901,0.545694 0.941231,1.050943 0.19115,0.505232 0.19115,1.018099 0,1.53977 -0.16369,0.521654 -0.450668,0.896605 -0.859686,1.124888 -0.409567,0.228248 -0.832067,0.244582 -1.26865,0.04872 l -14.979736,-6.893108 c -0.218911,-0.06555 -0.409584,-0.212428 -0.572727,-0.440109 l -7.326752,0 0,5.915508 c 0,0.553949 -0.170601,1.035105 -0.511662,1.442352 -0.341521,0.407246 -0.743471,0.610852 -1.207053,0.610852 -0.49175,0 -0.907783,-0.203606 -1.248702,-0.610852 -0.34092,-0.407247 -0.511698,-0.888403 -0.511698,-1.442352 l 0,-15.497297 c 0,-0.488827 0.136764,-0.9289 0.409585,-1.319724 0.136233,-0.261111 0.326853,-0.481174 0.57271,-0.660137 0.245379,-0.178963 0.518164,-0.268764 0.818585,-0.268764 l 25.048615,0 c 0.463564,0 0.859065,0.196095 1.18707,0.586812 0.327441,0.390789 0.491151,0.863176 0.491151,1.417107 l 0,0.09797 c 0.0275,0.09797 0.0409,0.244581 0.0409,0.440091 l 0,6.501717 c 0,0.228248 -0.0124,0.391391 -0.0409,0.488792 l 0,0.293406 c 0,0.554516 -0.1637,1.027487 -0.491151,1.418276 -0.328005,0.390806 -0.723506,0.58621 -1.18707,0.58621 l -7.121392,0 7.817332,3.568915 z m -24.06632,-7.577321 21.815375,0 0,-3.813586 -21.815375,0 0,3.813586 z"
           style="fill:#4d4d4d;fill-opacity:1;fill-rule:nonzero;stroke:none"
           id="path14915-0-8"
           inkscape:connector-curvature="0" />
        <path
           d="m 135.16793,-86.275174 c 0.054,0.13021 0.0817,0.342089 0.0817,0.635495 l 0,14.763799 c 0,0.586795 -0.1706,1.083824 -0.51168,1.491637 -0.34094,0.407246 -0.74347,0.610852 -1.20705,0.610852 -0.49173,0 -0.90777,-0.203606 -1.2487,-0.610852 -0.34151,-0.407813 -0.51168,-0.904842 -0.51168,-1.491637 l 0,-10.462006 -9.41339,9.435688 c -0.24589,0.260543 -0.53223,0.407246 -0.85967,0.439524 -0.57272,0.326269 -1.14602,0.228762 -1.71871,-0.292821 l -9.41342,-9.484371 0,10.363986 c 0,0.586795 -0.1706,1.083824 -0.51168,1.491637 -0.34151,0.407246 -0.75756,0.610852 -1.2487,0.610852 -0.46417,0 -0.8667,-0.203606 -1.20764,-0.610852 -0.34092,-0.407813 -0.5111,-0.904842 -0.5111,-1.491637 l 0,-14.763799 c 0,-0.586812 0.17007,-1.083824 0.5111,-1.491052 0.34094,-0.407247 0.74347,-0.61087 1.20764,-0.61087 0.32743,0 0.6208,0.09797 0.88018,0.293406 0.25886,0.195297 0.47061,0.439507 0.63434,0.732912 l 10.88685,10.950799 11.17438,-11.194902 c 0.2176,-0.359131 0.50403,-0.586812 0.85905,-0.684797 l 0.0409,0 c 0.0544,-0.03224 0.1086,-0.04872 0.1637,-0.04872 0.6267,-0.16316 1.1595,0.06502 1.59608,0.684213 0.13624,0.16316 0.2184,0.325666 0.2459,0.488809 0.0269,0.03295 0.0404,0.06555 0.0404,0.09797 l 0.0409,0.04872 0,0.09797"
           style="fill:#4d4d4d;fill-opacity:1;fill-rule:nonzero;stroke:none"
           id="path14917-9-0"
           inkscape:connector-curvature="0" />
        <path
           d="m 169.1118,-73.271172 c 0.43659,0.196094 0.74994,0.545694 0.94182,1.050943 0.19063,0.505232 0.19063,1.018099 0,1.53977 -0.1644,0.521654 -0.45125,0.896605 -0.86027,1.124888 -0.40957,0.228248 -0.83207,0.244582 -1.26805,0.04872 l -14.98034,-6.893108 c -0.21891,-0.06555 -0.40958,-0.212428 -0.57273,-0.440109 l -7.32673,0 0,5.915508 c 0,0.553949 -0.1706,1.035105 -0.51168,1.442352 -0.34152,0.407246 -0.74347,0.610852 -1.20705,0.610852 -0.49173,0 -0.90777,-0.203606 -1.24871,-0.610852 -0.34093,-0.407247 -0.51109,-0.888403 -0.51109,-1.442352 l 0,-15.497297 c 0,-0.488827 0.13623,-0.9289 0.409,-1.319724 0.13623,-0.261111 0.32684,-0.481174 0.57269,-0.660137 0.24538,-0.178963 0.51817,-0.268764 0.81859,-0.268764 l 25.0492,0 c 0.46356,0 0.85848,0.196095 1.1865,0.586812 0.32744,0.390789 0.49117,0.863176 0.49117,1.417107 l 0,0.09797 c 0.0274,0.09797 0.0409,0.244581 0.0409,0.440091 l 0,6.501717 c 0,0.228248 -0.0124,0.391391 -0.0409,0.488792 l 0,0.293406 c 0,0.554516 -0.1637,1.027487 -0.49117,1.418276 -0.32802,0.390806 -0.72294,0.58621 -1.1865,0.58621 l -7.12194,0 7.81729,3.568915 z m -24.0663,-7.577321 21.81536,0 0,-3.813586 -21.81536,0 0,3.813586 z"
           style="fill:#58a201;fill-opacity:1;fill-rule:nonzero;stroke:none"
           id="path14919-5-8"
           inkscape:connector-curvature="0" />
        <path
           d="m 203.54739,-72.929083 c 0.46358,0 0.85908,0.196094 1.18708,0.586811 0.32686,0.391391 0.49115,0.863743 0.49115,1.417692 0,0.55395 -0.16422,1.026886 -0.49115,1.41771 -0.328,0.391391 -0.7235,0.586776 -1.18708,0.586776 l -25.0486,0 c -0.46415,0 -0.85967,-0.195297 -1.18711,-0.586776 -0.328,-0.390824 -0.49114,-0.86376 -0.49114,-1.41771 0,-0.06502 -0.005,-0.139067 -0.0207,-0.219957 -0.0124,-0.08149 -0.0207,-0.170601 -0.0207,-0.268728 l 0,-7.235214 c -0.0275,-0.09761 -0.0409,-0.261129 -0.0409,-0.489394 0,-0.194801 0.0124,-0.341522 0.0409,-0.439507 l 0,-6.599702 c 0,-0.09744 0.005,-0.187786 0.0207,-0.268764 0.0124,-0.08149 0.0207,-0.155366 0.0207,-0.220736 0,-0.553932 0.16316,-1.026319 0.49114,-1.417107 0.32744,-0.390807 0.72296,-0.586812 1.18711,-0.586812 l 25.0486,0 c 0.46358,0 0.85908,0.196094 1.18708,0.586812 0.32686,0.390788 0.49115,0.863175 0.49115,1.417107 0,0.554516 -0.16422,1.027487 -0.49115,1.418294 -0.328,0.390788 -0.7235,0.586209 -1.18708,0.586209 l -23.2882,0 0,3.568881 23.20663,0 c 0.46298,0 0.85849,0.187271 1.18651,0.562169 0.32744,0.374384 0.49115,0.8391 0.49115,1.393049 0,0.554517 -0.1637,1.027488 -0.49115,1.418277 -0.32802,0.390842 -0.72353,0.586227 -1.18651,0.586227 l -23.20663,0 0,4.204393 23.2882,0"
           style="fill:#58a201;fill-opacity:1;fill-rule:nonzero;stroke:none"
           id="path14921-6-6"
           inkscape:connector-curvature="0" />
        <path
           d="m 238.47414,-88.670501 c 0.46358,0 0.85906,0.196094 1.1865,0.586812 0.32744,0.390788 0.49115,0.863175 0.49115,1.417107 0,0.554516 -0.16369,1.027487 -0.49115,1.418294 -0.32744,0.390788 -0.72292,0.586209 -1.1865,0.586209 l -10.80528,0 0,13.737499 c 0,0.586812 -0.17149,1.08439 -0.51168,1.49107 -0.34153,0.407211 -0.74348,0.610852 -1.20762,0.610852 -0.49117,0 -0.9072,-0.203623 -1.24814,-0.610852 -0.34152,-0.40668 -0.51168,-0.904258 -0.51168,-1.49107 l 0,-13.737499 -10.7642,0 c -0.46417,0 -0.86025,-0.195314 -1.1871,-0.586209 -0.32801,-0.390807 -0.49113,-0.863778 -0.49113,-1.418294 0,-0.553932 0.16316,-1.026319 0.49113,-1.417107 0.32685,-0.390807 0.72293,-0.586812 1.1871,-0.586812 l 25.0486,0"
           style="fill:#58a201;fill-opacity:1;fill-rule:nonzero;stroke:none"
           id="path14923-5-8"
           inkscape:connector-curvature="0" />
        <path
           d="m 274.58737,-86.226491 0,14.763817 c 0,0.09797 -0.007,0.187786 -0.0207,0.269348 -0.0124,0.08096 -0.0207,0.154303 -0.0207,0.219957 0,0.55395 -0.16369,1.026921 -0.49115,1.41771 -0.32744,0.390806 -0.72294,0.586209 -1.18652,0.586209 l -25.04916,0 c -0.46415,0 -0.85907,-0.195297 -1.18651,-0.586209 -0.32804,-0.390789 -0.49114,-0.86376 -0.49114,-1.41771 -0.0553,-0.195314 -0.0822,-0.359113 -0.0822,-0.489393 l 0,-14.763818 c 0,-0.586174 0.17715,-1.083221 0.53221,-1.490432 0.35443,-0.407848 0.76345,-0.611454 1.2276,-0.611454 0.49115,0 0.90718,0.203606 1.2481,0.611454 0.34092,0.407211 0.5117,0.904258 0.5117,1.490432 l 0,13.297426 21.4879,0 0,-13.297426 c 0,-0.586174 0.1706,-1.083221 0.5117,-1.490432 0.34092,-0.407848 0.75695,-0.611454 1.2487,-0.611454 0.46356,0 0.87256,0.203606 1.227,0.611454 0.355,0.407211 0.53282,0.904258 0.53282,1.490432"
           style="fill:#58a201;fill-opacity:1;fill-rule:nonzero;stroke:none"
           id="path14925-8-7"
           inkscape:connector-curvature="0" />
        <path
           d="m 308.08116,-73.271172 c 0.43657,0.196094 0.74992,0.545694 0.94121,1.050943 0.19064,0.505232 0.19064,1.018099 0,1.53977 -0.16369,0.521654 -0.45066,0.896605 -0.86023,1.124888 -0.40898,0.228248 -0.83209,0.244582 -1.26807,0.04872 l -14.97977,-6.893108 c -0.21891,-0.06555 -0.40956,-0.212428 -0.57329,-0.440109 l -7.32615,0 0,5.915508 c 0,0.553949 -0.1706,1.035105 -0.5117,1.442352 -0.34152,0.407246 -0.74404,0.610852 -1.20762,0.610852 -0.49175,0 -0.90778,-0.203606 -1.2487,-0.610852 -0.34092,-0.407247 -0.5111,-0.888403 -0.5111,-1.442352 l 0,-15.497297 c 0,-0.488827 0.13677,-0.9289 0.409,-1.319724 0.13677,-0.261111 0.32742,-0.481174 0.5733,-0.660137 0.24538,-0.178963 0.51813,-0.268764 0.81858,-0.268764 l 25.0486,0 c 0.46357,0 0.85908,0.196095 1.18709,0.586812 0.32683,0.390789 0.49115,0.863176 0.49115,1.417107 l 0,0.09797 c 0.0269,0.09797 0.0409,0.244581 0.0409,0.440091 l 0,6.501717 c 0,0.228248 -0.0124,0.391391 -0.0409,0.488792 l 0,0.293406 c 0,0.554516 -0.1644,1.027487 -0.49115,1.418276 -0.32801,0.390806 -0.72352,0.58621 -1.18709,0.58621 l -7.12198,0 7.81792,3.568915 z m -24.0663,-7.577321 21.81534,0 0,-3.813586 -21.81534,0 0,3.813586 z"
           style="fill:#58a201;fill-opacity:1;fill-rule:nonzero;stroke:none"
           id="path14927-3-1"
           inkscape:connector-curvature="0" />
        <path
           d="m 343.25379,-71.658059 c 0.13676,0.456513 0.0951,0.912442 -0.12313,1.368974 -0.13623,0.358528 -0.33449,0.627292 -0.59382,0.806857 -0.25887,0.178963 -0.53812,0.285186 -0.83857,0.317446 l -0.1637,0 c -0.51819,0 -0.9143,-0.195315 -1.18715,-0.586776 l -21.9785,-13.346126 0,11.831016 c 0,0.586776 -0.1706,1.083221 -0.51167,1.491034 -0.34152,0.407247 -0.75755,0.610852 -1.24813,0.610852 -0.46406,0 -0.86727,-0.203605 -1.20819,-0.610852 -0.34086,-0.407813 -0.51113,-0.904258 -0.51113,-1.491034 l 0,-14.76442 c 0,-0.586209 0.17007,-1.083221 0.51113,-1.490467 0.34092,-0.407814 0.74413,-0.611419 1.20819,-0.611419 0.21762,0 0.46358,0.06502 0.73644,0.195314 0.24538,0 0.50464,0.08167 0.7775,0.244582 l 21.65163,13.150723 0,-11.48891 c 0,-0.58621 0.17007,-1.083221 0.51113,-1.490468 0.34092,-0.407813 0.75695,-0.611418 1.24875,-0.611418 0.4641,0 0.86605,0.203605 1.20757,0.611418 0.34092,0.407247 0.5117,0.904258 0.5117,1.490468 l 0,14.373011"
           style="fill:#58a201;fill-opacity:1;fill-rule:nonzero;stroke:none"
           id="path14929-9-6"
           inkscape:connector-curvature="0" />
      </g>
      <g
         transform="matrix(0.55593462,0,0,0.55593462,-128.43148,-410.96271)"
         id="g7730-0-5">
        <path
           inkscape:connector-curvature="0"
           style="fill:#4d4d4d;fill-opacity:0.99923102;fill-rule:nonzero;stroke:none"
           d="m 136.93985,541.65102 -9.61098,2.76926 2.76926,9.61098 9.52955,-2.76926 -2.68783,-9.61098 z m -2.60638,22.80573 -6.59738,1.87333 1.87333,6.59738 6.59738,-1.87333 -1.87333,-6.59738 z m 15.7197,51.55731 -18.00025,5.13127 16.53415,58.39902 47.24048,-13.35766 -12.29881,-43.4938 -14.5794,4.15388 8.38927,29.72894 -14.57939,4.1539 -12.70605,-44.71555 z"
           id="path116-6-5-0-8" />
        <path
           inkscape:connector-curvature="0"
           style="fill:#58a201;fill-opacity:1;fill-rule:nonzero;stroke:none"
           d="m 155.02156,546.37507 -11.48433,3.25794 3.33943,11.48434 11.4843,-3.25797 -3.3394,-11.48431 z m 43.49383,6.02721 -32.90545,9.36666 1.95478,6.76029 -11.48431,3.33941 -1.95481,-6.84175 -13.60198,3.90957 4.64259,16.20838 45.85584,-12.95041 4.15391,14.57937 -34.77875,9.85535 4.31679,15.231 46.58889,-13.27621 -12.7875,-46.18166 z m -72.97839,2.03624 -7.08609,2.03624 2.03621,7.0046 7.08609,-2.03621 -2.03621,-7.00463 z"
           id="path120-1-9-1-4" />
      </g>
    </g>
  </g>
</svg>
