<?xml version="1.0" encoding="UTF-8" standalone="no"?>
<!-- Created with Inkscape (http://www.inkscape.org/) -->

<svg
   xmlns:dc="http://purl.org/dc/elements/1.1/"
   xmlns:cc="http://creativecommons.org/ns#"
   xmlns:rdf="http://www.w3.org/1999/02/22-rdf-syntax-ns#"
   xmlns:svg="http://www.w3.org/2000/svg"
   xmlns="http://www.w3.org/2000/svg"
   xmlns:sodipodi="http://sodipodi.sourceforge.net/DTD/sodipodi-0.dtd"
   xmlns:inkscape="http://www.inkscape.org/namespaces/inkscape"
   version="1.1"
   width="78.719727"
   height="59.793449"
   id="svg4550"
   inkscape:version="0.48.4 r9939"
   sodipodi:docname="formreturn_gray.svg">
  <sodipodi:namedview
     pagecolor="#ffffff"
     bordercolor="#666666"
     borderopacity="1"
     objecttolerance="10"
     gridtolerance="10"
     guidetolerance="10"
     inkscape:pageopacity="0"
     inkscape:pageshadow="2"
     inkscape:window-width="640"
     inkscape:window-height="480"
     id="namedview27"
     showgrid="false"
     inkscape:zoom="3.7093625"
     inkscape:cx="39.359863"
     inkscape:cy="29.896725"
     inkscape:window-x="431"
     inkscape:window-y="99"
     inkscape:window-maximized="0"
     inkscape:current-layer="svg4550" />
  <defs
     id="defs4552">
    <filter
       color-interpolation-filters="sRGB"
       id="filter8972">
      <feMorphology
         result="result91"
         in="SourceAlpha"
         radius="4.3"
         id="feMorphology8974" />
      <feComposite
         in2="result91"
         operator="out"
         in="SourceGraphic"
         id="feComposite8976" />
      <feGaussianBlur
         stdDeviation="1.2"
         result="result0"
         id="feGaussianBlur8978" />
      <feDiffuseLighting
         result="result92"
         diffuseConstant="1"
         id="feDiffuseLighting8980">
        <feDistantLight
           azimuth="225"
           elevation="66"
           id="feDistantLight8982" />
      </feDiffuseLighting>
      <feBlend
         in2="SourceGraphic"
         mode="multiply"
         result="result93"
         id="feBlend8984" />
      <feComposite
         in2="SourceAlpha"
         operator="in"
         id="feComposite8986" />
    </filter>
    <filter
       color-interpolation-filters="sRGB"
       id="filter8988">
      <feMorphology
         result="result91"
         in="SourceAlpha"
         radius="4.3"
         id="feMorphology8990" />
      <feComposite
         in2="result91"
         operator="out"
         in="SourceGraphic"
         id="feComposite8992" />
      <feGaussianBlur
         stdDeviation="1.2"
         result="result0"
         id="feGaussianBlur8994" />
      <feDiffuseLighting
         result="result92"
         diffuseConstant="1"
         id="feDiffuseLighting8996">
        <feDistantLight
           azimuth="225"
           elevation="66"
           id="feDistantLight8998" />
      </feDiffuseLighting>
      <feBlend
         in2="SourceGraphic"
         mode="multiply"
         result="result93"
         id="feBlend9000" />
      <feComposite
         in2="SourceAlpha"
         operator="in"
         id="feComposite9002" />
    </filter>
  </defs>
  <metadata
     id="metadata4555">
    <rdf:RDF>
      <cc:Work
         rdf:about="">
        <dc:format>image/svg+xml</dc:format>
        <dc:type
           rdf:resource="http://purl.org/dc/dcmitype/StillImage" />
        <dc:title></dc:title>
      </cc:Work>
    </rdf:RDF>
  </metadata>
  <path
     d="m 59.87547,6.78125 a 0.58002222,0.58002222 0 1 0 0.09375,1.15625 l 12.59375,0 0,12.59375 a 0.578125,0.578125 0 0 0 1.15625,0 l 0,-13.1875 a 0.57540651,0.57540651 0 0 0 -0.59375,-0.5625 l -13.15625,0 a 0.57540651,0.57540651 0 0 0 -0.09375,0 z"
     id="rect5789"
     style="font-size:medium;font-style:normal;font-variant:normal;font-weight:normal;font-stretch:normal;text-indent:0;text-align:start;text-decoration:none;line-height:normal;letter-spacing:normal;word-spacing:normal;text-transform:none;direction:ltr;block-progression:tb;writing-mode:lr-tb;text-anchor:start;baseline-shift:baseline;color:#000000;fill:#58a201;fill-opacity:1;stroke:none;stroke-width:1.15069795;marker:none;visibility:visible;display:inline;overflow:visible;enable-background:accumulate;font-family:Sans;-inkscape-font-specification:Sans" />
  <path
     d="m 73.06297,38.6875 a 0.57540651,0.57540651 0 0 0 -0.5,0.59375 l 0,12.59375 -12.59375,0 a 0.57540651,0.57540651 0 1 0 0,1.125 l 13.15625,0 a 0.57540651,0.57540651 0 0 0 0.59375,-0.5625 l 0,-13.15625 A 0.57540651,0.57540651 0 0 0 73.06297,38.6875 z"
     id="rect5789-0-9"
     style="font-size:medium;font-style:normal;font-variant:normal;font-weight:normal;font-stretch:normal;text-indent:0;text-align:start;text-decoration:none;line-height:normal;letter-spacing:normal;word-spacing:normal;text-transform:none;direction:ltr;block-progression:tb;writing-mode:lr-tb;text-anchor:start;baseline-shift:baseline;color:#000000;fill:#4d4d4d;fill-opacity:1;stroke:none;stroke-width:1.15069795;marker:none;visibility:visible;display:inline;overflow:visible;enable-background:accumulate;font-family:Sans;-inkscape-font-specification:Sans" />
  <path
     d="m 5.5004697,38.6875 a 0.57540651,0.57540651 0 0 0 -0.5,0.59375 l 0,13.15625 A 0.57540651,0.57540651 0 0 0 5.5942197,53 L 18.75047,53 a 0.57540651,0.57540651 0 1 0 0,-1.125 l -12.5937503,0 0,-12.59375 a 0.57540651,0.57540651 0 0 0 -0.65625,-0.59375 z"
     id="rect5789-0"
     style="font-size:medium;font-style:normal;font-variant:normal;font-weight:normal;font-stretch:normal;text-indent:0;text-align:start;text-decoration:none;line-height:normal;letter-spacing:normal;word-spacing:normal;text-transform:none;direction:ltr;block-progression:tb;writing-mode:lr-tb;text-anchor:start;baseline-shift:baseline;color:#000000;fill:#58a201;fill-opacity:1;stroke:none;stroke-width:1.15069795;marker:none;visibility:visible;display:inline;overflow:visible;enable-background:accumulate;font-family:Sans;-inkscape-font-specification:Sans" />
  <path
     d="m 5.4692197,6.78125 a 0.57540651,0.57540651 0 0 0 -0.46875,0.5625 l 0,13.1875 a 0.578125,0.578125 0 0 0 1.15625,0 l 0,-12.59375 12.5937503,0 a 0.578125,0.578125 0 0 0 0,-1.15625 l -13.1562503,0 a 0.57540651,0.57540651 0 0 0 -0.125,0 z"
     id="rect5789-6"
     style="font-size:medium;font-style:normal;font-variant:normal;font-weight:normal;font-stretch:normal;text-indent:0;text-align:start;text-decoration:none;line-height:normal;letter-spacing:normal;word-spacing:normal;text-transform:none;direction:ltr;block-progression:tb;writing-mode:lr-tb;text-anchor:start;baseline-shift:baseline;color:#000000;fill:#4d4d4d;fill-opacity:1;stroke:none;stroke-width:1.15069795;marker:none;visibility:visible;display:inline;overflow:visible;enable-background:accumulate;font-family:Sans;-inkscape-font-specification:Sans" />
  <path
     d="M 29.272101,5 25.801564,5.9999831 26.801548,9.4705197 30.24268,8.4705365 29.272101,5 z m -0.941167,8.235177 -2.382322,0.676461 0.676462,2.382323 2.382322,-0.676462 -0.676462,-2.382322 z m 5.676403,18.617407 -6.499912,1.852908 5.970502,21.087957 17.058594,-4.823467 -4.441115,-15.705665 -5.264639,1.499972 3.029376,10.735156 -5.264636,1.499979 -4.58817,-16.14684 z"
     id="path116-6-5-0-8"
     style="fill:#4d4d4d;fill-opacity:0.99923102;fill-rule:nonzero;stroke:none" />
  <path
     d="m 35.801429,6.7058602 -4.147006,1.176446 1.205872,4.1470088 4.146995,-1.176456 -1.205861,-4.1469988 z m 15.705674,2.1764328 -11.882197,3.382312 0.705873,2.441149 -4.146999,1.205865 -0.705884,-2.470564 -4.911691,1.411751 1.676445,5.852866 16.558599,-4.67641 1.499982,5.264629 L 37.742582,24.85267 39.30138,30.352602 56.124685,25.558547 51.507103,8.882293 z M 25.154518,9.6175817 22.595722,10.352871 23.331,12.88224 25.889796,12.146962 25.154518,9.6175817 z"
     id="path120-1-9-1-4"
     style="fill:#58a201;fill-opacity:1;fill-rule:nonzero;stroke:none" />
</svg>
