<?xml version="1.0" encoding="UTF-8" standalone="no"?>
<!-- Created with Inkscape (http://www.inkscape.org/) -->
<svg
   xmlns:svg="http://www.w3.org/2000/svg"
   xmlns="http://www.w3.org/2000/svg"
   version="1.0"
   width="226"
   height="48"
   id="svg2574">
  <defs
     id="defs2719" />
  <rect
     width="0"
     height="28"
     x="28.578268"
     y="-0.41620636"
     id="rect2584"
     style="fill:#000000" />
  <rect
     width="0"
     height="28"
     x="42.57827"
     y="-0.41620636"
     id="rect2594"
     style="fill:#000000" />
  <rect
     width="0"
     height="28"
     x="56.57827"
     y="-0.41620636"
     id="rect2604"
     style="fill:#000000" />
  <rect
     width="0"
     height="28"
     x="70.57827"
     y="-0.41620636"
     id="rect2614"
     style="fill:#000000" />
  <rect
     width="0"
     height="28"
     x="84.57827"
     y="-0.41620636"
     id="rect2624"
     style="fill:#000000" />
  <rect
     width="0"
     height="28"
     x="98.57827"
     y="-0.41620636"
     id="rect2634"
     style="fill:#000000" />
  <rect
     width="0"
     height="40"
     x="112.57827"
     y="-0.41620636"
     id="rect2644"
     style="fill:#000000" />
  <text
     x="31.578268"
     y="46.583794"
     id="text2714"
     style="font-size:25px;font-style:normal;font-family:Arial" />
  <path
     d="M 1.4387513e-08,-4.0136719e-08 L 22,-4.0136719e-08 L 22,48 L 1.4387513e-08,48 L 1.4387513e-08,-4.0136719e-08 z"
     id="rect2576"
     style="fill:#ffffff" />
  <path
     d="M 22,-4.0136719e-08 L 24,-4.0136719e-08 L 24,40 L 22,40 L 22,-4.0136719e-08 z"
     id="rect2578"
     style="fill:#000000" />
  <path
     d="M 24,-4.0136719e-08 L 26,-4.0136719e-08 L 26,40 L 24,40 L 24,-4.0136719e-08 z"
     id="rect2580"
     style="fill:#ffffff" />
  <path
     d="M 26,-4.0136719e-08 L 28,-4.0136719e-08 L 28,40 L 26,40 L 26,-4.0136719e-08 z"
     id="rect2582"
     style="fill:#000000" />
  <path
     d="M 28,-4.0136719e-08 L 32,-4.0136719e-08 L 32,28 L 28,28 L 28,-4.0136719e-08 z"
     id="rect2586"
     style="fill:#ffffff" />
  <path
     d="M 32,-4.0136719e-08 L 36,-4.0136719e-08 L 36,28 L 32,28 L 32,-4.0136719e-08 z"
     id="rect2588"
     style="fill:#000000" />
  <path
     d="M 36,-4.0136719e-08 L 40,-4.0136719e-08 L 40,28 L 36,28 L 36,-4.0136719e-08 z"
     id="rect2590"
     style="fill:#ffffff" />
  <path
     d="M 40,-4.0136719e-08 L 42,-4.0136719e-08 L 42,28 L 40,28 L 40,-4.0136719e-08 z"
     id="rect2592"
     style="fill:#000000" />
  <path
     d="M 42,-4.0136719e-08 L 46,-4.0136719e-08 L 46,28 L 42,28 L 42,-4.0136719e-08 z"
     id="rect2596"
     style="fill:#ffffff" />
  <path
     d="M 46,-4.0136719e-08 L 50,-4.0136719e-08 L 50,28 L 46,28 L 46,-4.0136719e-08 z"
     id="rect2598"
     style="fill:#000000" />
  <path
     d="M 50,-4.0136719e-08 L 52,-4.0136719e-08 L 52,28 L 50,28 L 50,-4.0136719e-08 z"
     id="rect2600"
     style="fill:#ffffff" />
  <path
     d="M 52,-4.0136719e-08 L 56,-4.0136719e-08 L 56,28 L 52,28 L 52,-4.0136719e-08 z"
     id="rect2602"
     style="fill:#000000" />
  <path
     d="M 56,-4.0136719e-08 L 58,-4.0136719e-08 L 58,28 L 56,28 L 56,-4.0136719e-08 z"
     id="rect2606"
     style="fill:#ffffff" />
  <path
     d="M 58,-4.0136719e-08 L 60,-4.0136719e-08 L 60,28 L 58,28 L 58,-4.0136719e-08 z"
     id="rect2608"
     style="fill:#000000" />
  <path
     d="M 60,-4.0136719e-08 L 68,-4.0136719e-08 L 68,28 L 60,28 L 60,-4.0136719e-08 z"
     id="rect2610"
     style="fill:#ffffff" />
  <path
     d="M 68,-4.0136719e-08 L 70,-4.0136719e-08 L 70,28 L 68,28 L 68,-4.0136719e-08 z"
     id="rect2612"
     style="fill:#000000" />
  <path
     d="M 70,-4.0136719e-08 L 72,-4.0136719e-08 L 72,28 L 70,28 L 70,-4.0136719e-08 z"
     id="rect2616"
     style="fill:#ffffff" />
  <path
     d="M 72,-4.0136719e-08 L 74,-4.0136719e-08 L 74,28 L 72,28 L 72,-4.0136719e-08 z"
     id="rect2618"
     style="fill:#000000" />
  <path
     d="M 74,-4.0136719e-08 L 80,-4.0136719e-08 L 80,28 L 74,28 L 74,-4.0136719e-08 z"
     id="rect2620"
     style="fill:#ffffff" />
  <path
     d="M 80,-4.0136719e-08 L 84,-4.0136719e-08 L 84,28 L 80,28 L 80,-4.0136719e-08 z"
     id="rect2622"
     style="fill:#000000" />
  <path
     d="M 84,-4.0136719e-08 L 86,-4.0136719e-08 L 86,28 L 84,28 L 84,-4.0136719e-08 z"
     id="rect2626"
     style="fill:#ffffff" />
  <path
     d="M 86,-4.0136719e-08 L 90,-4.0136719e-08 L 90,28 L 86,28 L 86,-4.0136719e-08 z"
     id="rect2628"
     style="fill:#000000" />
  <path
     d="M 90,-4.0136719e-08 L 96,-4.0136719e-08 L 96,28 L 90,28 L 90,-4.0136719e-08 z"
     id="rect2630"
     style="fill:#ffffff" />
  <path
     d="M 96,-4.0136719e-08 L 98,-4.0136719e-08 L 98,28 L 96,28 L 96,-4.0136719e-08 z"
     id="rect2632"
     style="fill:#000000" />
  <path
     d="M 98,-4.0136719e-08 L 106,-4.0136719e-08 L 106,28 L 98,28 L 98,-4.0136719e-08 z"
     id="rect2636"
     style="fill:#ffffff" />
  <path
     d="M 106,-4.0136719e-08 L 108,-4.0136719e-08 L 108,28 L 106,28 L 106,-4.0136719e-08 z"
     id="rect2638"
     style="fill:#000000" />
  <path
     d="M 108,-4.0136719e-08 L 110,-4.0136719e-08 L 110,28 L 108,28 L 108,-4.0136719e-08 z"
     id="rect2640"
     style="fill:#ffffff" />
  <path
     d="M 110,-4.0136719e-08 L 112,-4.0136719e-08 L 112,28 L 110,28 L 110,-4.0136719e-08 z"
     id="rect2642"
     style="fill:#000000" />
  <path
     d="M 112,-4.0136719e-08 L 114,-4.0136719e-08 L 114,40 L 112,40 L 112,-4.0136719e-08 z"
     id="rect2646"
     style="fill:#ffffff" />
  <path
     d="M 114,-4.0136719e-08 L 116,-4.0136719e-08 L 116,40 L 114,40 L 114,-4.0136719e-08 z"
     id="rect2648"
     style="fill:#000000" />
  <path
     d="M 116,-4.0136719e-08 L 118,-4.0136719e-08 L 118,40 L 116,40 L 116,-4.0136719e-08 z"
     id="rect2650"
     style="fill:#ffffff" />
  <path
     d="M 118,-4.0136719e-08 L 120,-4.0136719e-08 L 120,40 L 118,40 L 118,-4.0136719e-08 z"
     id="rect2652"
     style="fill:#000000" />
  <path
     d="M 120,-4.0136719e-08 L 122,-4.0136719e-08 L 122,40 L 120,40 L 120,-4.0136719e-08 z"
     id="rect2654"
     style="fill:#ffffff" />
  <path
     d="M 122,-4.0136719e-08 L 124,-4.0136719e-08 L 124,28 L 122,28 L 122,-4.0136719e-08 z"
     id="rect2656"
     style="fill:#000000" />
  <path
     d="M 124,-4.0136719e-08 L 130,-4.0136719e-08 L 130,28 L 124,28 L 124,-4.0136719e-08 z"
     id="rect2658"
     style="fill:#ffffff" />
  <path
     d="M 130,-4.0136719e-08 L 132,-4.0136719e-08 L 132,28 L 130,28 L 130,-4.0136719e-08 z"
     id="rect2660"
     style="fill:#000000" />
  <path
     d="M 132,-4.0136719e-08 L 136,-4.0136719e-08 L 136,28 L 132,28 L 132,-4.0136719e-08 z"
     id="rect2662"
     style="fill:#ffffff" />
  <path
     d="M 136,-4.0136719e-08 L 138,-4.0136719e-08 L 138,28 L 136,28 L 136,-4.0136719e-08 z"
     id="rect2664"
     style="fill:#000000" />
  <path
     d="M 138,-4.0136719e-08 L 142,-4.0136719e-08 L 142,28 L 138,28 L 138,-4.0136719e-08 z"
     id="rect2666"
     style="fill:#ffffff" />
  <path
     d="M 142,-4.0136719e-08 L 144,-4.0136719e-08 L 144,28 L 142,28 L 142,-4.0136719e-08 z"
     id="rect2668"
     style="fill:#000000" />
  <path
     d="M 144,-4.0136719e-08 L 150,-4.0136719e-08 L 150,28 L 144,28 L 144,-4.0136719e-08 z"
     id="rect2670"
     style="fill:#ffffff" />
  <path
     d="M 150,-4.0136719e-08 L 156,-4.0136719e-08 L 156,28 L 150,28 L 150,-4.0136719e-08 z"
     id="rect2672"
     style="fill:#000000" />
  <path
     d="M 156,-4.0136719e-08 L 158,-4.0136719e-08 L 158,28 L 156,28 L 156,-4.0136719e-08 z"
     id="rect2674"
     style="fill:#ffffff" />
  <path
     d="M 158,-4.0136719e-08 L 160,-4.0136719e-08 L 160,28 L 158,28 L 158,-4.0136719e-08 z"
     id="rect2676"
     style="fill:#000000" />
  <path
     d="M 160,-4.0136719e-08 L 164,-4.0136719e-08 L 164,28 L 160,28 L 160,-4.0136719e-08 z"
     id="rect2678"
     style="fill:#ffffff" />
  <path
     d="M 164,-4.0136719e-08 L 170,-4.0136719e-08 L 170,28 L 164,28 L 164,-4.0136719e-08 z"
     id="rect2680"
     style="fill:#000000" />
  <path
     d="M 170,-4.0136719e-08 L 174,-4.0136719e-08 L 174,28 L 170,28 L 170,-4.0136719e-08 z"
     id="rect2682"
     style="fill:#ffffff" />
  <path
     d="M 174,-4.0136719e-08 L 176,-4.0136719e-08 L 176,28 L 174,28 L 174,-4.0136719e-08 z"
     id="rect2684"
     style="fill:#000000" />
  <path
     d="M 176,-4.0136719e-08 L 178,-4.0136719e-08 L 178,28 L 176,28 L 176,-4.0136719e-08 z"
     id="rect2686"
     style="fill:#ffffff" />
  <path
     d="M 178,-4.0136719e-08 L 184,-4.0136719e-08 L 184,28 L 178,28 L 178,-4.0136719e-08 z"
     id="rect2688"
     style="fill:#000000" />
  <path
     d="M 184,-4.0136719e-08 L 188,-4.0136719e-08 L 188,28 L 184,28 L 184,-4.0136719e-08 z"
     id="rect2690"
     style="fill:#ffffff" />
  <path
     d="M 188,-4.0136719e-08 L 190,-4.0136719e-08 L 190,28 L 188,28 L 188,-4.0136719e-08 z"
     id="rect2692"
     style="fill:#000000" />
  <path
     d="M 190,-4.0136719e-08 L 192,-4.0136719e-08 L 192,28 L 190,28 L 190,-4.0136719e-08 z"
     id="rect2694"
     style="fill:#ffffff" />
  <path
     d="M 192,-4.0136719e-08 L 198,-4.0136719e-08 L 198,28 L 192,28 L 192,-4.0136719e-08 z"
     id="rect2696"
     style="fill:#000000" />
  <path
     d="M 198,-4.0136719e-08 L 202,-4.0136719e-08 L 202,28 L 198,28 L 198,-4.0136719e-08 z"
     id="rect2698"
     style="fill:#ffffff" />
  <path
     d="M 202,-4.0136719e-08 L 204,-4.0136719e-08 L 204,28 L 202,28 L 202,-4.0136719e-08 z"
     id="rect2700"
     style="fill:#000000" />
  <path
     d="M 204,-4.0136719e-08 L 206,-4.0136719e-08 L 206,28 L 204,28 L 204,-4.0136719e-08 z"
     id="rect2702"
     style="fill:#ffffff" />
  <path
     d="M 206,-4.0136719e-08 L 208,-4.0136719e-08 L 208,40 L 206,40 L 206,-4.0136719e-08 z"
     id="rect2704"
     style="fill:#000000" />
  <path
     d="M 208,-4.0136719e-08 L 210,-4.0136719e-08 L 210,40 L 208,40 L 208,-4.0136719e-08 z"
     id="rect2706"
     style="fill:#ffffff" />
  <path
     d="M 210,-4.0136719e-08 L 212,-4.0136719e-08 L 212,40 L 210,40 L 210,-4.0136719e-08 z"
     id="rect2708"
     style="fill:#000000" />
  <path
     d="M 212,-4.0136719e-08 L 226,-4.0136719e-08 L 226,48 L 212,48 L 212,-4.0136719e-08 z"
     id="rect2710"
     style="fill:#ffffff" />
  <path
     d="M 33.015438,44.918968 L 33.015438,30.602562 L 35.906063,30.602562 L 35.906063,44.918968 L 33.015438,44.918968 M 38.679501,44.918968 L 38.679501,30.602562 L 41.492001,30.602562 L 47.351376,40.163109 L 47.351376,30.602562 L 50.036922,30.602562 L 50.036922,44.918968 L 47.136532,44.918968 L 41.365047,35.583031 L 41.365047,44.918968 L 38.679501,44.918968 M 56.755672,44.918968 L 51.638485,30.602562 L 54.773251,30.602562 L 58.396297,41.198265 L 61.902157,30.602562 L 64.968563,30.602562 L 59.84161,44.918968 L 56.755672,44.918968 M 77.888485,44.918968 L 74.743954,44.918968 L 73.493954,41.667015 L 67.771297,41.667015 L 66.589657,44.918968 L 63.523251,44.918968 L 69.099422,30.602562 L 72.156063,30.602562 L 77.888485,44.918968 M 72.566219,39.254906 L 70.593563,33.942406 L 68.659969,39.254906 L 72.566219,39.254906 M 79.509579,44.918968 L 79.509579,30.719749 L 82.400204,30.719749 L 82.400204,42.506859 L 89.587704,42.506859 L 89.587704,44.918968 L 79.509579,44.918968 M 91.570126,44.918968 L 91.570126,30.602562 L 94.460751,30.602562 L 94.460751,44.918968 L 91.570126,44.918968 M 97.195126,30.602562 L 102.47833,30.602562 C 103.66973,30.602576 104.57793,30.693722 105.20294,30.875999 C 106.04277,31.123409 106.76217,31.562862 107.36114,32.194359 C 107.96009,32.825881 108.41582,33.60062 108.72833,34.518578 C 109.04082,35.430045 109.19707,36.556346 109.19708,37.897484 C 109.19707,39.075875 109.05058,40.091499 108.75763,40.944359 C 108.39954,41.986028 107.88847,42.829127 107.22442,43.473656 C 106.72311,43.961938 106.04603,44.342797 105.19317,44.616234 C 104.55514,44.818057 103.70228,44.918968 102.63458,44.918968 L 97.195126,44.918968 L 97.195126,30.602562 M 100.08575,33.024437 L 100.08575,42.506859 L 102.24395,42.506859 C 103.05124,42.506861 103.63392,42.461288 103.992,42.37014 C 104.46074,42.252955 104.84811,42.054388 105.15411,41.774437 C 105.4666,41.494492 105.72051,41.035509 105.91583,40.397484 C 106.11113,39.752958 106.20879,38.877308 106.2088,37.770531 C 106.20879,36.663768 106.11113,35.81416 105.91583,35.221703 C 105.72051,34.629265 105.44707,34.167026 105.09552,33.834984 C 104.74394,33.502964 104.29798,33.278355 103.75763,33.161156 C 103.35397,33.070022 102.56296,33.024449 101.38458,33.024437 L 100.08575,33.024437"
     id="text2712"
     style="font-size:25px;font-style:normal;fill:#ff0000;font-family:Arial" />
  <path
     d="M 123.17188,43 L 123.17188,31.546875 L 127.46875,31.546875 C 128.34374,31.546886 129.04426,31.664074 129.57031,31.898438 C 130.10155,32.127615 130.51562,32.484386 130.8125,32.96875 C 131.11457,33.447926 131.26562,33.95053 131.26562,34.476562 C 131.26562,34.966154 131.1328,35.427091 130.86719,35.859375 C 130.60155,36.291673 130.20051,36.640631 129.66406,36.90625 C 130.35676,37.109381 130.88801,37.455735 131.25781,37.945312 C 131.6328,38.4349 131.8203,39.013025 131.82031,39.679688 C 131.8203,40.216149 131.70572,40.716148 131.47656,41.179688 C 131.25259,41.638022 130.97395,41.992189 130.64062,42.242188 C 130.30728,42.492188 129.88801,42.682292 129.38281,42.8125 C 128.88281,42.9375 128.26822,43 127.53906,43 L 123.17188,43 M 124.6875,36.359375 L 127.16406,36.359375 C 127.83593,36.359382 128.3177,36.315111 128.60938,36.226562 C 128.99478,36.111986 129.28385,35.921882 129.47656,35.65625 C 129.67447,35.390633 129.77343,35.0573 129.77344,34.65625 C 129.77343,34.27605 129.68228,33.942717 129.5,33.65625 C 129.3177,33.364593 129.05728,33.166677 128.71875,33.0625 C 128.3802,32.953135 127.79947,32.898448 126.97656,32.898438 L 124.6875,32.898438 L 124.6875,36.359375 M 124.6875,41.648438 L 127.53906,41.648438 C 128.02864,41.648439 128.37239,41.63021 128.57031,41.59375 C 128.91926,41.531251 129.21093,41.427085 129.44531,41.28125 C 129.67968,41.135419 129.87239,40.924481 130.02344,40.648438 C 130.17447,40.36719 130.24999,40.044274 130.25,39.679688 C 130.24999,39.252608 130.14062,38.882817 129.92188,38.570312 C 129.70312,38.252609 129.39843,38.031255 129.00781,37.90625 C 128.62239,37.776047 128.0651,37.710943 127.33594,37.710938 L 124.6875,37.710938 L 124.6875,41.648438 M 132.63281,43 L 137.03125,31.546875 L 138.66406,31.546875 L 143.35156,43 L 141.625,43 L 140.28906,39.53125 L 135.5,39.53125 L 134.24219,43 L 132.63281,43 M 135.9375,38.296875 L 139.82031,38.296875 L 138.625,35.125 C 138.26041,34.161467 137.98958,33.369801 137.8125,32.75 C 137.66666,33.484385 137.46093,34.21355 137.19531,34.9375 L 135.9375,38.296875 M 144.60156,43 L 144.60156,31.546875 L 149.67969,31.546875 C 150.70051,31.546886 151.47655,31.651053 152.00781,31.859375 C 152.53905,32.062511 152.96353,32.42449 153.28125,32.945312 C 153.59895,33.466155 153.7578,34.041676 153.75781,34.671875 C 153.7578,35.484383 153.49478,36.169278 152.96875,36.726562 C 152.4427,37.28386 151.6302,37.638026 150.53125,37.789062 C 150.93228,37.981776 151.23697,38.17188 151.44531,38.359375 C 151.88801,38.765629 152.30728,39.273441 152.70312,39.882812 L 154.69531,43 L 152.78906,43 L 151.27344,40.617188 C 150.83072,39.929691 150.46614,39.403649 150.17969,39.039062 C 149.89322,38.674483 149.63541,38.419275 149.40625,38.273438 C 149.18229,38.127609 148.95312,38.026047 148.71875,37.96875 C 148.54687,37.932297 148.26562,37.914068 147.875,37.914062 L 146.11719,37.914062 L 146.11719,43 L 144.60156,43 M 146.11719,36.601562 L 149.375,36.601562 C 150.0677,36.601569 150.60937,36.531256 151,36.390625 C 151.39062,36.244798 151.68749,36.015632 151.89062,35.703125 C 152.09374,35.385424 152.1953,35.041675 152.19531,34.671875 C 152.1953,34.130217 151.99739,33.684905 151.60156,33.335938 C 151.21093,32.986989 150.59114,32.81251 149.74219,32.8125 L 146.11719,32.8125 L 146.11719,36.601562 M 164.3125,38.984375 L 165.82812,39.367188 C 165.51041,40.611982 164.93749,41.562501 164.10938,42.21875 C 163.28645,42.869792 162.27864,43.195312 161.08594,43.195312 C 159.85156,43.195312 158.84635,42.945313 158.07031,42.445312 C 157.29948,41.940105 156.71094,41.210939 156.30469,40.257812 C 155.90364,39.304691 155.70312,38.281255 155.70312,37.1875 C 155.70312,35.994799 155.92969,34.955737 156.38281,34.070312 C 156.84114,33.179697 157.48958,32.505219 158.32812,32.046875 C 159.17187,31.583345 160.09895,31.351574 161.10938,31.351562 C 162.2552,31.351574 163.21874,31.643241 164,32.226562 C 164.78124,32.809906 165.32551,33.630218 165.63281,34.6875 L 164.14062,35.039062 C 163.87499,34.205738 163.48957,33.598968 162.98438,33.21875 C 162.47916,32.838552 161.84374,32.648448 161.07812,32.648438 C 160.19791,32.648448 159.46093,32.859385 158.86719,33.28125 C 158.27864,33.703134 157.86458,34.270842 157.625,34.984375 C 157.38541,35.692716 157.26562,36.424486 157.26562,37.179688 C 157.26562,38.153651 157.40625,39.005212 157.6875,39.734375 C 157.97396,40.458336 158.41666,41.000002 159.01562,41.359375 C 159.61458,41.718751 160.26302,41.898439 160.96094,41.898438 C 161.80989,41.898439 162.52864,41.653647 163.11719,41.164062 C 163.70572,40.674481 164.10416,39.94792 164.3125,38.984375 M 167.21094,37.421875 C 167.21094,35.520841 167.72135,34.033863 168.74219,32.960938 C 169.76302,31.882824 171.08072,31.343762 172.69531,31.34375 C 173.7526,31.343762 174.70572,31.596366 175.55469,32.101562 C 176.40364,32.606781 177.04947,33.31251 177.49219,34.21875 C 177.94009,35.1198 178.16405,36.143236 178.16406,37.289062 C 178.16405,38.450525 177.92968,39.489587 177.46094,40.40625 C 176.99218,41.322918 176.32812,42.01823 175.46875,42.492188 C 174.60937,42.960938 173.68228,43.195312 172.6875,43.195312 C 171.60937,43.195312 170.64583,42.934896 169.79688,42.414062 C 168.94791,41.89323 168.30469,41.182293 167.86719,40.28125 C 167.42969,39.380212 167.21094,38.427088 167.21094,37.421875 M 168.77344,37.445312 C 168.77344,38.825525 169.14323,39.914066 169.88281,40.710938 C 170.6276,41.502606 171.55989,41.898439 172.67969,41.898438 C 173.82031,41.898439 174.7578,41.497397 175.49219,40.695312 C 176.23176,39.893232 176.60155,38.755213 176.60156,37.28125 C 176.60155,36.348965 176.4427,35.536466 176.125,34.84375 C 175.81249,34.145842 175.35155,33.60678 174.74219,33.226562 C 174.13801,32.841156 173.45833,32.648448 172.70312,32.648438 C 171.6302,32.648448 170.70572,33.018239 169.92969,33.757812 C 169.15885,34.492196 168.77344,35.721361 168.77344,37.445312 M 180.14062,43 L 180.14062,31.546875 L 184.08594,31.546875 C 184.97656,31.546886 185.65624,31.601574 186.125,31.710938 C 186.78124,31.86199 187.34114,32.135428 187.80469,32.53125 C 188.40884,33.041677 188.85937,33.695322 189.15625,34.492188 C 189.45832,35.283862 189.60936,36.190111 189.60938,37.210938 C 189.60936,38.080734 189.5078,38.851567 189.30469,39.523438 C 189.10155,40.195315 188.84114,40.752606 188.52344,41.195312 C 188.20572,41.632814 187.85676,41.979168 187.47656,42.234375 C 187.10155,42.484376 186.64583,42.674479 186.10938,42.804688 C 185.57812,42.934896 184.96614,43 184.27344,43 L 180.14062,43 M 181.65625,41.648438 L 184.10156,41.648438 C 184.85676,41.648439 185.44791,41.578126 185.875,41.4375 C 186.30728,41.296877 186.65103,41.09896 186.90625,40.84375 C 187.26562,40.484378 187.54426,40.002607 187.74219,39.398438 C 187.9453,38.789067 188.04687,38.052088 188.04688,37.1875 C 188.04687,35.98959 187.84895,35.07032 187.45312,34.429688 C 187.06249,33.783863 186.58593,33.351572 186.02344,33.132812 C 185.61718,32.976573 184.96354,32.898448 184.0625,32.898438 L 181.65625,32.898438 L 181.65625,41.648438 M 191.70312,43 L 191.70312,31.546875 L 199.98438,31.546875 L 199.98438,32.898438 L 193.21875,32.898438 L 193.21875,36.40625 L 199.55469,36.40625 L 199.55469,37.75 L 193.21875,37.75 L 193.21875,41.648438 L 200.25,41.648438 L 200.25,43 L 191.70312,43"
     id="text2716"
     style="font-size:25px;font-style:normal;font-family:Arial" />
</svg>
