<?xml version="1.0" encoding="UTF-8" standalone="no"?>
<!-- Created with Inkscape (http://www.inkscape.org/) -->

<svg
   xmlns:dc="http://purl.org/dc/elements/1.1/"
   xmlns:cc="http://creativecommons.org/ns#"
   xmlns:rdf="http://www.w3.org/1999/02/22-rdf-syntax-ns#"
   xmlns:svg="http://www.w3.org/2000/svg"
   xmlns="http://www.w3.org/2000/svg"
   xmlns:xlink="http://www.w3.org/1999/xlink"
   xmlns:sodipodi="http://sodipodi.sourceforge.net/DTD/sodipodi-0.dtd"
   xmlns:inkscape="http://www.inkscape.org/namespaces/inkscape"
   version="1.2"
   width="145.49995"
   height="40"
   id="svg13617"
   inkscape:version="0.48.4 r9939"
   sodipodi:docname="show_guide.svg">
  <sodipodi:namedview
     pagecolor="#ffffff"
     bordercolor="#666666"
     borderopacity="1"
     objecttolerance="10"
     gridtolerance="10"
     guidetolerance="10"
     inkscape:pageopacity="0"
     inkscape:pageshadow="2"
     inkscape:window-width="1855"
     inkscape:window-height="1056"
     id="namedview4432"
     showgrid="false"
     inkscape:zoom="5.6762954"
     inkscape:cx="29.223682"
     inkscape:cy="65.167195"
     inkscape:window-x="65"
     inkscape:window-y="24"
     inkscape:window-maximized="1"
     inkscape:current-layer="svg13617" />
  <defs
     id="defs13619">
    <linearGradient
       x1="2.9000001"
       y1="2.9000001"
       x2="12.1"
       y2="12.1"
       id="inner-5"
       gradientUnits="userSpaceOnUse">
      <stop
         id="stop3688-7"
         style="stop-color:#b6ceec;stop-opacity:1"
         offset="0" />
      <stop
         id="stop3690-7"
         style="stop-color:#4774aa;stop-opacity:1"
         offset="1" />
    </linearGradient>
    <linearGradient
       x1="3.21875"
       y1="3"
       x2="11.59375"
       y2="12.03125"
       id="linearGradient11301"
       xlink:href="#linearGradient26102"
       gradientUnits="userSpaceOnUse"
       gradientTransform="translate(800.50217,740.19183)" />
    <linearGradient
       x1="2.2"
       y1="2.2"
       x2="12.8"
       y2="12.8"
       id="linearGradient26102"
       gradientUnits="userSpaceOnUse"
       spreadMethod="pad">
      <stop
         id="stop26104"
         style="stop-color:#a7c1e3;stop-opacity:1"
         offset="0" />
      <stop
         id="stop26106"
         style="stop-color:#5f89b7;stop-opacity:1"
         offset="1" />
    </linearGradient>
    <linearGradient
       x1="3.21875"
       y1="3"
       x2="11.59375"
       y2="12.03125"
       id="linearGradient13785"
       xlink:href="#linearGradient26102"
       gradientUnits="userSpaceOnUse"
       gradientTransform="translate(133.42857,525.79075)" />
    <linearGradient
       x1="2.9000001"
       y1="2.9000001"
       x2="12.1"
       y2="12.1"
       id="linearGradient13787"
       xlink:href="#inner-5"
       gradientUnits="userSpaceOnUse"
       gradientTransform="translate(133.42857,525.79075)" />
    <linearGradient
       x1="3.21875"
       y1="3"
       x2="11.59375"
       y2="12.03125"
       id="linearGradient15027"
       xlink:href="#linearGradient26102"
       gradientUnits="userSpaceOnUse"
       gradientTransform="translate(133.42857,525.79075)" />
    <linearGradient
       x1="2.9000001"
       y1="2.9000001"
       x2="12.1"
       y2="12.1"
       id="linearGradient15029"
       xlink:href="#inner-5"
       gradientUnits="userSpaceOnUse"
       gradientTransform="translate(133.42857,525.79075)" />
    <linearGradient
       x1="3.21875"
       y1="3"
       x2="11.59375"
       y2="12.03125"
       id="linearGradient15051"
       xlink:href="#linearGradient26102"
       gradientUnits="userSpaceOnUse"
       gradientTransform="translate(133.42857,525.79075)" />
    <linearGradient
       x1="2.9000001"
       y1="2.9000001"
       x2="12.1"
       y2="12.1"
       id="linearGradient15053"
       xlink:href="#inner-5"
       gradientUnits="userSpaceOnUse"
       gradientTransform="translate(133.42857,525.79075)" />
    <linearGradient
       x1="3.21875"
       y1="3"
       x2="11.59375"
       y2="12.03125"
       id="linearGradient15077"
       xlink:href="#linearGradient26102"
       gradientUnits="userSpaceOnUse"
       gradientTransform="translate(133.42857,525.79075)" />
    <linearGradient
       x1="2.9000001"
       y1="2.9000001"
       x2="12.1"
       y2="12.1"
       id="linearGradient15079"
       xlink:href="#inner-5"
       gradientUnits="userSpaceOnUse"
       gradientTransform="translate(133.42857,525.79075)" />
    <linearGradient
       x1="3.21875"
       y1="3"
       x2="11.59375"
       y2="12.03125"
       id="linearGradient134993"
       xlink:href="#linearGradient26102"
       gradientUnits="userSpaceOnUse"
       gradientTransform="translate(133.42857,525.79075)" />
    <linearGradient
       x1="2.9000001"
       y1="2.9000001"
       x2="12.1"
       y2="12.1"
       id="linearGradient134995"
       xlink:href="#inner-5"
       gradientUnits="userSpaceOnUse"
       gradientTransform="translate(133.42857,525.79075)" />
    <linearGradient
       x1="3.21875"
       y1="3"
       x2="11.59375"
       y2="12.03125"
       id="linearGradient134993-7"
       xlink:href="#linearGradient26102-3"
       gradientUnits="userSpaceOnUse"
       gradientTransform="translate(133.42857,525.79075)" />
    <linearGradient
       x1="2.2"
       y1="2.2"
       x2="12.8"
       y2="12.8"
       id="linearGradient26102-3"
       gradientUnits="userSpaceOnUse"
       spreadMethod="pad">
      <stop
         id="stop26104-0"
         style="stop-color:#a7c1e3;stop-opacity:1"
         offset="0" />
      <stop
         id="stop26106-3"
         style="stop-color:#5f89b7;stop-opacity:1"
         offset="1" />
    </linearGradient>
    <linearGradient
       x1="2.9000001"
       y1="2.9000001"
       x2="12.1"
       y2="12.1"
       id="linearGradient134995-9"
       xlink:href="#inner-5-2"
       gradientUnits="userSpaceOnUse"
       gradientTransform="translate(133.42857,525.79075)" />
    <linearGradient
       x1="2.9000001"
       y1="2.9000001"
       x2="12.1"
       y2="12.1"
       id="inner-5-2"
       gradientUnits="userSpaceOnUse">
      <stop
         id="stop3688-7-3"
         style="stop-color:#b6ceec;stop-opacity:1"
         offset="0" />
      <stop
         id="stop3690-7-3"
         style="stop-color:#4774aa;stop-opacity:1"
         offset="1" />
    </linearGradient>
    <filter
       x="0"
       y="0"
       width="1"
       height="1"
       color-interpolation-filters="sRGB"
       id="filter135064">
      <feColorMatrix
         values="0"
         type="saturate"
         id="feColorMatrix135066" />
    </filter>
    <linearGradient
       x1="3.21875"
       y1="3"
       x2="11.59375"
       y2="12.03125"
       id="linearGradient135076"
       xlink:href="#linearGradient26102-3"
       gradientUnits="userSpaceOnUse"
       gradientTransform="translate(133.42857,525.79075)" />
    <linearGradient
       x1="2.9000001"
       y1="2.9000001"
       x2="12.1"
       y2="12.1"
       id="linearGradient135078"
       xlink:href="#inner-5-2"
       gradientUnits="userSpaceOnUse"
       gradientTransform="translate(133.42857,525.79075)" />
    <linearGradient
       x1="3.21875"
       y1="3"
       x2="11.59375"
       y2="12.03125"
       id="linearGradient135626"
       xlink:href="#linearGradient26102-3"
       gradientUnits="userSpaceOnUse"
       gradientTransform="translate(133.42857,525.79075)" />
    <linearGradient
       x1="2.9000001"
       y1="2.9000001"
       x2="12.1"
       y2="12.1"
       id="linearGradient135628"
       xlink:href="#inner-5-2"
       gradientUnits="userSpaceOnUse"
       gradientTransform="translate(133.42857,525.79075)" />
    <linearGradient
       x1="3.21875"
       y1="3"
       x2="11.59375"
       y2="12.03125"
       id="linearGradient135641"
       xlink:href="#linearGradient26102-3"
       gradientUnits="userSpaceOnUse"
       gradientTransform="translate(133.42857,525.79075)" />
    <linearGradient
       x1="2.9000001"
       y1="2.9000001"
       x2="12.1"
       y2="12.1"
       id="linearGradient135643"
       xlink:href="#inner-5-2"
       gradientUnits="userSpaceOnUse"
       gradientTransform="translate(133.42857,525.79075)" />
  </defs>
  <metadata
     id="metadata13622">
    <rdf:RDF>
      <cc:Work
         rdf:about="">
        <dc:format>image/svg+xml</dc:format>
        <dc:type
           rdf:resource="http://purl.org/dc/dcmitype/StillImage" />
        <dc:title></dc:title>
      </cc:Work>
    </rdf:RDF>
  </metadata>
  <g
     transform="matrix(0.78594219,0,0,0.78594219,-353.90281,-621.3237)"
     id="g8483"
     style="fill:#999999;fill-opacity:1;stroke:none">
    <g
       transform="translate(-14.96581,289.2855)"
       id="flowRoot8448-8"
       style="font-size:40px;font-style:normal;font-variant:normal;font-weight:bold;font-stretch:normal;line-height:125%;letter-spacing:0px;word-spacing:0px;fill:#999999;fill-opacity:1;stroke:none;font-family:FontAwesome;-inkscape-font-specification:FontAwesome Bold" />
  </g>
  <a
     id="closeHelp"
     transform="translate(-458.91227,-723.50013)"
     xlink:href="/home/rquast/closeHelp">
    <g
       id="flowRoot27109-1-9"
       style="font-size:40px;font-style:normal;font-variant:normal;font-weight:normal;font-stretch:normal;line-height:125%;letter-spacing:0px;word-spacing:0px;fill:#4d4d4d;fill-opacity:1;stroke:none;font-family:Rock Salt;-inkscape-font-specification:Rock Salt"
       transform="matrix(0.6561,0,0,0.6561,303.69474,518.7095)" />
  </a>
  <g
     transform="matrix(0.6561,0,0,0.6561,-152.24629,-149.05094)"
     style="font-size:40px;font-style:normal;font-variant:normal;font-weight:normal;font-stretch:normal;line-height:125%;letter-spacing:0px;word-spacing:0px;fill:#4d4d4d;fill-opacity:1;stroke:none;font-family:Rock Salt;-inkscape-font-specification:Rock Salt"
     id="flowRoot27109-1">
    <path
       id="path4901"
       style="font-size:21.33821106px;fill:#4d4d4d;font-family:Abel;-inkscape-font-specification:Abel"
       d="m 444.43904,260.66621 c -10e-6,0.43066 -0.0834,0.837 -0.25006,1.21903 -0.15976,0.38204 -0.38204,0.71544 -0.66682,1.00023 -0.28479,0.28479 -0.6182,0.51053 -1.00022,0.67724 -0.38204,0.15976 -0.78838,0.23964 -1.21903,0.23964 l -0.85436,0 c -0.43066,0 -0.83701,-0.0799 -1.21903,-0.23964 -0.38204,-0.16671 -0.71545,-0.39245 -1.00023,-0.67724 -0.28479,-0.28479 -0.51054,-0.61819 -0.67724,-1.00023 -0.15976,-0.38203 -0.23964,-0.78837 -0.23964,-1.21903 l 0,-4.8136 c 0,-0.43064 0.0799,-0.83699 0.23964,-1.21903 0.1667,-0.38202 0.39245,-0.71543 0.67724,-1.00022 0.28478,-0.28478 0.61819,-0.50705 1.00023,-0.66682 0.38202,-0.1667 0.78837,-0.25005 1.21903,-0.25006 l 0.85436,0 c 0.43065,1e-5 0.83699,0.0834 1.21903,0.25006 0.38202,0.15977 0.71543,0.38204 1.00022,0.66682 0.28478,0.28479 0.50706,0.6182 0.66682,1.00022 0.1667,0.38204 0.25005,0.78839 0.25006,1.21903 l 0,2.51099 -5.84509,0 0,2.37555 c 0,0.257 0.0486,0.50011 0.14587,0.72933 0.0972,0.22228 0.22922,0.41676 0.39592,0.58347 0.16671,0.1667 0.3612,0.29868 0.58347,0.39592 0.22922,0.0972 0.47233,0.14587 0.72934,0.14587 l 0.85436,0 c 0.25699,0 0.49663,-0.0486 0.71891,-0.14587 0.22921,-0.0972 0.42718,-0.22922 0.59389,-0.39592 0.1667,-0.16671 0.29867,-0.36119 0.39592,-0.58347 0.0972,-0.22922 0.14586,-0.47233 0.14587,-0.72933 l 0,-0.7085 1.28154,0.20838 0,0.42718 0,0 m -1.28154,-4.88653 c -1e-5,-0.257 -0.0486,-0.49663 -0.14587,-0.71891 -0.0973,-0.22921 -0.22922,-0.42718 -0.39592,-0.59389 -0.16671,-0.1667 -0.36468,-0.29867 -0.59389,-0.39592 -0.22228,-0.0972 -0.46192,-0.14586 -0.71891,-0.14587 l -0.85436,0 c -0.25701,10e-6 -0.50012,0.0486 -0.72934,0.14587 -0.22227,0.0972 -0.41676,0.22922 -0.58347,0.39592 -0.1667,0.16671 -0.29868,0.36468 -0.39592,0.59389 -0.0973,0.22228 -0.14587,0.46191 -0.14587,0.71891 l 0,1.5837 4.56355,0 0,-1.5837 m -8.8562,7.81429 -0.70849,-1.08358 c -0.29174,0.39592 -0.65641,0.71196 -1.094,0.94813 -0.43761,0.22922 -0.91688,0.34383 -1.43783,0.34383 l -0.32299,0 c -0.43066,0 -0.837,-0.0799 -1.21903,-0.23964 -0.38203,-0.16671 -0.71544,-0.39245 -1.00023,-0.67724 -0.28479,-0.28479 -0.51053,-0.61819 -0.67724,-1.00023 -0.15976,-0.38203 -0.23964,-0.78837 -0.23963,-1.21903 l 0,-4.8136 c -10e-6,-0.43064 0.0799,-0.83699 0.23963,-1.21903 0.16671,-0.38202 0.39245,-0.71543 0.67724,-1.00022 0.28479,-0.28478 0.6182,-0.50705 1.00023,-0.66682 0.38203,-0.1667 0.78837,-0.25005 1.21903,-0.25006 l 0.32299,0 c 0.47927,1e-5 0.92382,0.0973 1.33364,0.29173 0.40981,0.1945 0.76058,0.4654 1.05232,0.81269 l 0,-5.16785 1.28154,0 0,14.94092 -0.42718,0 m -0.85436,-7.81429 c -10e-6,-0.257 -0.0486,-0.49663 -0.14587,-0.71891 -0.0972,-0.22921 -0.22922,-0.42718 -0.39592,-0.59389 -0.16671,-0.1667 -0.36467,-0.29867 -0.59388,-0.39592 -0.22228,-0.0972 -0.46192,-0.14586 -0.71892,-0.14587 l -0.85436,0 c -0.25701,10e-6 -0.50012,0.0486 -0.72933,0.14587 -0.22228,0.0972 -0.41677,0.22922 -0.58347,0.39592 -0.16671,0.16671 -0.29868,0.36468 -0.39592,0.59389 -0.0972,0.22228 -0.14587,0.46191 -0.14587,0.71891 l 0,4.95947 c 0,0.257 0.0486,0.50011 0.14587,0.72933 0.0972,0.22228 0.22921,0.41676 0.39592,0.58347 0.1667,0.1667 0.36119,0.29868 0.58347,0.39592 0.22921,0.0972 0.47232,0.14587 0.72933,0.14587 l 0.85436,0 c 0.257,0 0.49664,-0.0486 0.71892,-0.14587 0.22921,-0.0972 0.42717,-0.22922 0.59388,-0.39592 0.1667,-0.16671 0.29867,-0.36119 0.39592,-0.58347 0.0972,-0.22922 0.14586,-0.47233 0.14587,-0.72933 l 0,-4.95947 m -10.2315,-5.41791 0,-1.70872 1.48993,0 0,1.70872 -1.48993,0 m 0.10419,13.2322 0,-10.66911 1.28155,0 0,10.66911 -1.28155,0 m -3.43829,0 -0.70849,-1.08358 c -0.29174,0.39592 -0.65641,0.71196 -1.094,0.94813 -0.43761,0.22922 -0.91688,0.34383 -1.43783,0.34383 l -0.32299,0 c -0.43066,0 -0.837,-0.0799 -1.21903,-0.23964 -0.38203,-0.16671 -0.71544,-0.39245 -1.00023,-0.67724 -0.28479,-0.28479 -0.51053,-0.61819 -0.67724,-1.00023 -0.15976,-0.38203 -0.23964,-0.78837 -0.23963,-1.21903 l 0,-7.74135 1.28154,0 0,7.81429 c 0,0.257 0.0486,0.50011 0.14587,0.72933 0.0972,0.22228 0.22921,0.41676 0.39592,0.58347 0.1667,0.1667 0.36119,0.29868 0.58347,0.39592 0.22921,0.0972 0.47232,0.14587 0.72933,0.14587 l 0.85436,0 c 0.257,0 0.49664,-0.0486 0.71892,-0.14587 0.22921,-0.0972 0.42717,-0.22922 0.59388,-0.39592 0.1667,-0.16671 0.29867,-0.36119 0.39592,-0.58347 0.0972,-0.22922 0.14586,-0.47233 0.14587,-0.72933 l 0,-7.81429 1.28154,0 0,10.66911 -0.42718,0 m -9.50216,0 -0.42719,0 -0.78142,-1.19819 c -0.32648,0.43065 -0.7224,0.77448 -1.18778,1.03148 -0.46539,0.25006 -0.98287,0.37509 -1.55243,0.37509 l -0.78143,0 c -0.50707,0 -0.98634,-0.0938 -1.43783,-0.28132 -0.44455,-0.19449 -0.83353,-0.45843 -1.16693,-0.79184 -0.33342,-0.33341 -0.59737,-0.72239 -0.79185,-1.16694 -0.18755,-0.44454 -0.28132,-0.92034 -0.28132,-1.42741 l 0,-8.02267 c 0,-0.50704 0.0938,-0.98285 0.28132,-1.4274 0.19448,-0.44454 0.45843,-0.83351 0.79185,-1.16694 0.3334,-0.33339 0.72238,-0.59387 1.16693,-0.78143 0.45149,-0.19447 0.93076,-0.29171 1.43783,-0.29173 l 1.06274,0 c 0.50705,2e-5 0.98286,0.0973 1.42741,0.29173 0.44454,0.18756 0.83352,0.44804 1.16693,0.78143 0.3334,0.33343 0.59388,0.7224 0.78143,1.16694 0.19448,0.44455 0.29173,0.92036 0.29174,1.4274 l 0,0.60431 -1.34406,0.20838 0,-0.81269 c -1e-5,-0.33339 -0.0625,-0.64249 -0.18755,-0.92729 -0.12503,-0.29172 -0.29521,-0.54525 -0.51053,-0.76059 -0.21533,-0.21531 -0.46886,-0.38549 -0.76059,-0.51053 -0.28479,-0.12502 -0.59389,-0.18753 -0.92729,-0.18755 l -0.93772,0 c -0.33341,2e-5 -0.64598,0.0625 -0.93771,0.18755 -0.28479,0.12504 -0.53832,0.29522 -0.76059,0.51053 -0.21533,0.21534 -0.38551,0.46887 -0.51054,0.76059 -0.12503,0.2848 -0.18754,0.5939 -0.18754,0.92729 l 0,8.02267 c 0,0.33341 0.0625,0.64599 0.18754,0.93772 0.12503,0.28479 0.29521,0.53832 0.51054,0.76059 0.22227,0.21533 0.4758,0.3855 0.76059,0.51053 0.29173,0.12503 0.6043,0.18754 0.93771,0.18754 l 0.93772,0 c 0.3334,0 0.6425,-0.0625 0.92729,-0.18754 0.29173,-0.12503 0.54526,-0.2952 0.76059,-0.51053 0.21532,-0.22227 0.3855,-0.4758 0.51053,-0.76059 0.12503,-0.29173 0.18754,-0.60431 0.18755,-0.93772 l 0,-3.11529 -2.38596,0 0,-1.28155 3.73002,0 0,7.85597 m -16.9518,0 -4.35516,-5.33456 4.35516,-5.33455 1.66705,0 -4.45935,5.33455 4.45935,5.33456 -1.66705,0 m -5.88676,0 0,-14.94092 1.28154,0 0,14.94092 -1.28154,0 m -2.82356,-2.92776 c -1e-5,0.43066 -0.0834,0.837 -0.25006,1.21903 -0.15977,0.38204 -0.38204,0.71544 -0.66682,1.00023 -0.2848,0.28479 -0.6182,0.51053 -1.00023,0.67724 -0.38204,0.15976 -0.78838,0.23964 -1.21903,0.23964 l -0.85436,0 c -0.43066,0 -0.837,-0.0799 -1.21903,-0.23964 -0.38203,-0.16671 -0.71544,-0.39245 -1.00023,-0.67724 -0.28479,-0.28479 -0.51053,-0.61819 -0.67724,-1.00023 -0.15976,-0.38203 -0.23963,-0.78837 -0.23963,-1.21903 l 0,-4.8136 c 0,-0.43064 0.0799,-0.83699 0.23963,-1.21903 0.16671,-0.38202 0.39245,-0.71543 0.67724,-1.00022 0.28479,-0.28478 0.6182,-0.50705 1.00023,-0.66682 0.38203,-0.1667 0.78837,-0.25005 1.21903,-0.25006 l 0.85436,0 c 0.43065,1e-5 0.83699,0.0834 1.21903,0.25006 0.38203,0.15977 0.71543,0.38204 1.00023,0.66682 0.28478,0.28479 0.50705,0.6182 0.66682,1.00022 0.16669,0.38204 0.25005,0.78839 0.25006,1.21903 l 0,0.42718 -1.28155,0.20839 0,-0.7085 c 0,-0.257 -0.0486,-0.49663 -0.14586,-0.71891 -0.0973,-0.22921 -0.22923,-0.42718 -0.39593,-0.59389 -0.16671,-0.1667 -0.36467,-0.29867 -0.59388,-0.39592 -0.22228,-0.0972 -0.46192,-0.14586 -0.71892,-0.14587 l -0.85436,0 c -0.25701,10e-6 -0.50012,0.0486 -0.72933,0.14587 -0.22228,0.0972 -0.41677,0.22922 -0.58347,0.39592 -0.16671,0.16671 -0.29868,0.36468 -0.39592,0.59389 -0.0972,0.22228 -0.14587,0.46191 -0.14587,0.71891 l 0,4.95947 c 0,0.257 0.0486,0.50011 0.14587,0.72933 0.0972,0.22228 0.22921,0.41676 0.39592,0.58347 0.1667,0.1667 0.36119,0.29868 0.58347,0.39592 0.22921,0.0972 0.47232,0.14587 0.72933,0.14587 l 0.85436,0 c 0.257,0 0.49664,-0.0486 0.71892,-0.14587 0.22921,-0.0972 0.42717,-0.22922 0.59388,-0.39592 0.1667,-0.16671 0.29867,-0.36119 0.39593,-0.58347 0.0972,-0.22922 0.14586,-0.47233 0.14586,-0.72933 l 0,-0.7085 1.28155,0.20838 0,0.42718 0,0 m -11.51305,-10.30444 0,-1.70872 1.48992,0 0,1.70872 -1.48992,0 m 0.10419,13.2322 0,-10.66911 1.28154,0 0,10.66911 -1.28154,0 m -3.43829,0 -0.70849,-1.08358 c -0.29174,0.39592 -0.65641,0.71196 -1.094,0.94813 -0.43761,0.22922 -0.91689,0.34383 -1.43783,0.34383 l -0.32299,0 c -0.43066,0 -0.837,-0.0799 -1.21903,-0.23964 -0.38204,-0.16671 -0.71545,-0.39245 -1.00023,-0.67724 -0.28479,-0.28479 -0.51054,-0.61819 -0.67724,-1.00023 -0.15976,-0.38203 -0.23964,-0.78837 -0.23964,-1.21903 l 0,-7.74135 1.28155,0 0,7.81429 c -10e-6,0.257 0.0486,0.50011 0.14586,0.72933 0.0972,0.22228 0.22922,0.41676 0.39593,0.58347 0.1667,0.1667 0.36119,0.29868 0.58346,0.39592 0.22922,0.0972 0.47233,0.14587 0.72934,0.14587 l 0.85436,0 c 0.257,0 0.49663,-0.0486 0.71891,-0.14587 0.22922,-0.0972 0.42718,-0.22922 0.59389,-0.39592 0.1667,-0.16671 0.29867,-0.36119 0.39592,-0.58347 0.0972,-0.22922 0.14586,-0.47233 0.14587,-0.72933 l 0,-7.81429 1.28154,0 0,10.66911 -0.42718,0 m -9.50217,-3.45913 c -1e-5,0.48623 -0.0868,0.94467 -0.26048,1.37532 -0.17366,0.43065 -0.4133,0.80921 -0.71891,1.13567 -0.30564,0.32647 -0.66683,0.59389 -1.08358,0.80227 -0.40983,0.20143 -0.8509,0.31952 -1.32322,0.35425 l 1.36489,3.07362 -1.34405,0 -1.3649,-3.07362 c -0.50706,0 -0.98634,-0.0938 -1.43783,-0.28132 -0.44455,-0.19449 -0.83352,-0.45843 -1.16693,-0.79184 -0.33341,-0.33341 -0.59736,-0.72239 -0.79185,-1.16694 -0.18754,-0.44454 -0.28131,-0.92034 -0.28131,-1.42741 l 0,-8.02267 c 0,-0.50704 0.0938,-0.98285 0.28131,-1.4274 0.19449,-0.44454 0.45844,-0.83351 0.79185,-1.16694 0.33341,-0.33339 0.72238,-0.59387 1.16693,-0.78143 0.45149,-0.19447 0.93077,-0.29171 1.43783,-0.29173 l 1.06274,0 c 0.50706,2e-5 0.98286,0.0973 1.42741,0.29173 0.44454,0.18756 0.83352,0.44804 1.16694,0.78143 0.3334,0.33343 0.59387,0.7224 0.78143,1.16694 0.19447,0.44455 0.29172,0.92036 0.29173,1.4274 l 0,8.02267 0,0 m -1.34406,-8.02267 c -1e-5,-0.33339 -0.0625,-0.64249 -0.18754,-0.92729 -0.12504,-0.29172 -0.29522,-0.54525 -0.51053,-0.76059 -0.21534,-0.21531 -0.46887,-0.38549 -0.7606,-0.51053 -0.28479,-0.12502 -0.59389,-0.18753 -0.92729,-0.18755 l -0.93772,0 c -0.33341,2e-5 -0.64598,0.0625 -0.93771,0.18755 -0.28479,0.12504 -0.53832,0.29522 -0.76059,0.51053 -0.21533,0.21534 -0.38551,0.46887 -0.51053,0.76059 -0.12503,0.2848 -0.18755,0.5939 -0.18755,0.92729 l 0,8.02267 c 0,0.33341 0.0625,0.64599 0.18755,0.93772 0.12502,0.28479 0.2952,0.53832 0.51053,0.76059 0.22227,0.21533 0.4758,0.3855 0.76059,0.51053 0.29173,0.12503 0.6043,0.18754 0.93771,0.18754 l 0.93772,0 c 0.3334,0 0.6425,-0.0625 0.92729,-0.18754 0.29173,-0.12503 0.54526,-0.2952 0.7606,-0.51053 0.21531,-0.22227 0.38549,-0.4758 0.51053,-0.76059 0.12502,-0.29173 0.18753,-0.60431 0.18754,-0.93772 l 0,-8.02267 m -17.25394,11.4818 -0.69808,0 -2.50057,-8.04351 -0.0417,-0.55221 -0.0417,0.55221 -2.50058,8.04351 -0.70849,0 -3.56332,-10.66911 1.30239,0 2.54224,8.06434 0.0417,0.55221 0.0417,-0.55221 2.50057,-8.06434 0.77101,0 2.49015,8.06434 0.0417,0.55221 0.0417,-0.55221 2.54225,-8.06434 1.30238,0 -3.56331,10.66911 m -11.56519,-2.92776 c -10e-6,0.43066 -0.0834,0.837 -0.25005,1.21903 -0.15977,0.38204 -0.38204,0.71544 -0.66682,1.00023 -0.2848,0.28479 -0.61821,0.51053 -1.00023,0.67724 -0.38204,0.15976 -0.78838,0.23964 -1.21903,0.23964 l -0.85436,0 c -0.43066,0 -0.837,-0.0799 -1.21903,-0.23964 -0.38204,-0.16671 -0.71544,-0.39245 -1.00023,-0.67724 -0.28479,-0.28479 -0.51053,-0.61819 -0.67724,-1.00023 -0.15976,-0.38203 -0.23964,-0.78837 -0.23964,-1.21903 l 0,-4.8136 c 0,-0.43064 0.0799,-0.83699 0.23964,-1.21903 0.16671,-0.38202 0.39245,-0.71543 0.67724,-1.00022 0.28479,-0.28478 0.61819,-0.50705 1.00023,-0.66682 0.38203,-0.1667 0.78837,-0.25005 1.21903,-0.25006 l 0.85436,0 c 0.43065,1e-5 0.83699,0.0834 1.21903,0.25006 0.38202,0.15977 0.71543,0.38204 1.00023,0.66682 0.28478,0.28479 0.50705,0.6182 0.66682,1.00022 0.16669,0.38204 0.25004,0.78839 0.25005,1.21903 l 0,4.8136 0,0 m -1.28154,-4.88653 c -10e-6,-0.257 -0.0486,-0.49663 -0.14587,-0.71891 -0.0972,-0.22921 -0.22922,-0.42718 -0.39592,-0.59389 -0.16671,-0.1667 -0.36467,-0.29867 -0.59389,-0.39592 -0.22227,-0.0972 -0.46191,-0.14586 -0.71891,-0.14587 l -0.85436,0 c -0.25701,10e-6 -0.50012,0.0486 -0.72934,0.14587 -0.22227,0.0972 -0.41676,0.22922 -0.58346,0.39592 -0.16671,0.16671 -0.29868,0.36468 -0.39593,0.59389 -0.0972,0.22228 -0.14587,0.46191 -0.14586,0.71891 l 0,4.95947 c -10e-6,0.257 0.0486,0.50011 0.14586,0.72933 0.0972,0.22228 0.22922,0.41676 0.39593,0.58347 0.1667,0.1667 0.36119,0.29868 0.58346,0.39592 0.22922,0.0972 0.47233,0.14587 0.72934,0.14587 l 0.85436,0 c 0.257,0 0.49664,-0.0486 0.71891,-0.14587 0.22922,-0.0972 0.42718,-0.22922 0.59389,-0.39592 0.1667,-0.16671 0.29867,-0.36119 0.39592,-0.58347 0.0972,-0.22922 0.14586,-0.47233 0.14587,-0.72933 l 0,-4.95947 m -9.71055,7.81429 0,-7.81429 c -10e-6,-0.257 -0.0486,-0.49663 -0.14587,-0.71891 -0.0972,-0.22921 -0.22923,-0.42718 -0.39592,-0.59389 -0.16671,-0.1667 -0.36468,-0.29867 -0.59389,-0.39592 -0.22228,-0.0972 -0.46192,-0.14586 -0.71891,-0.14587 l -0.85437,0 c -0.257,10e-6 -0.50011,0.0486 -0.72933,0.14587 -0.22228,0.0972 -0.41676,0.22922 -0.58347,0.39592 -0.1667,0.16671 -0.29868,0.36468 -0.39592,0.59389 -0.0973,0.22228 -0.14587,0.46191 -0.14587,0.71891 l 0,7.81429 -1.28154,0 0,-14.94092 1.28154,0 0,5.16785 c 0.29173,-0.34729 0.64251,-0.61819 1.05233,-0.81269 0.40981,-0.19448 0.85436,-0.29172 1.33364,-0.29173 l 0.32299,0 c 0.43064,1e-5 0.83699,0.0834 1.21903,0.25006 0.38202,0.15977 0.71543,0.38204 1.00022,0.66682 0.28478,0.28479 0.50706,0.6182 0.66682,1.00022 0.1667,0.38204 0.25005,0.78839 0.25006,1.21903 l 0,7.74136 -1.28154,0 m -8.3144,-3.45913 c -10e-6,0.50707 -0.1042,0.98287 -0.31258,1.42741 -0.20144,0.44455 -0.47581,0.83353 -0.8231,1.16694 -0.34036,0.33341 -0.73976,0.59735 -1.19819,0.79184 -0.4515,0.18755 -0.93078,0.28132 -1.43783,0.28132 l -1.07316,0 c -0.50707,0 -0.98982,-0.0938 -1.44825,-0.28132 -0.45149,-0.19449 -0.85089,-0.45843 -1.19819,-0.79184 -0.34036,-0.33341 -0.61473,-0.72239 -0.8231,-1.16694 -0.20144,-0.44454 -0.30216,-0.92034 -0.30216,-1.42741 l 0,-0.59388 1.34406,-0.2188 0,0.81268 c 0,0.33341 0.066,0.64599 0.19796,0.93772 0.13892,0.28479 0.32299,0.53832 0.55221,0.76059 0.22922,0.21533 0.49317,0.3855 0.79185,0.51053 0.30562,0.12503 0.62514,0.18754 0.95855,0.18754 l 0.93772,0 c 0.3334,0 0.64944,-0.0625 0.94813,-0.18754 0.29867,-0.12503 0.56262,-0.2952 0.79185,-0.51053 0.22921,-0.22227 0.4098,-0.4758 0.54179,-0.76059 0.13891,-0.29173 0.20837,-0.60431 0.20838,-0.93772 l 0,-0.44802 c -10e-6,-0.514 -0.10073,-0.94118 -0.30215,-1.28154 -0.20145,-0.34035 -0.46887,-0.62861 -0.80227,-0.86478 -0.33342,-0.24311 -0.71198,-0.44801 -1.13568,-0.61472 -0.41676,-0.1667 -0.84742,-0.33341 -1.29196,-0.50012 -0.44455,-0.1667 -0.87868,-0.35077 -1.30238,-0.55221 -0.41676,-0.20143 -0.79185,-0.45148 -1.12526,-0.75017 -0.33341,-0.30562 -0.60083,-0.67723 -0.80226,-1.11484 -0.20144,-0.43759 -0.30216,-0.97591 -0.30216,-1.61495 l 0,-0.28132 c 0,-0.50704 0.0938,-0.98285 0.28132,-1.4274 0.19449,-0.44454 0.45843,-0.83351 0.79185,-1.16694 0.3334,-0.33339 0.72238,-0.59387 1.16693,-0.78143 0.45149,-0.19447 0.93076,-0.29171 1.43783,-0.29173 l 0.95855,0 c 0.50705,2e-5 0.98286,0.0973 1.42741,0.29173 0.44454,0.18756 0.83352,0.44804 1.16693,0.78143 0.3334,0.33343 0.59388,0.7224 0.78143,1.16694 0.19448,0.44455 0.29173,0.92036 0.29174,1.4274 l 0,0.38551 -1.34406,0.2188 0,-0.60431 c -1e-5,-0.33339 -0.0625,-0.64249 -0.18754,-0.92729 -0.12504,-0.29172 -0.29522,-0.54525 -0.51054,-0.76059 -0.21533,-0.21531 -0.46886,-0.38549 -0.76059,-0.51053 -0.28479,-0.12502 -0.59389,-0.18753 -0.92729,-0.18755 l -0.83353,0 c -0.33341,2e-5 -0.64598,0.0625 -0.93771,0.18755 -0.28479,0.12504 -0.53832,0.29522 -0.76059,0.51053 -0.21533,0.21534 -0.38551,0.46887 -0.51054,0.76059 -0.12503,0.2848 -0.18754,0.5939 -0.18754,0.92729 l 0,0.28132 c 0,0.47929 0.10072,0.88216 0.30215,1.20861 0.20144,0.32647 0.46886,0.60779 0.80227,0.84394 0.33341,0.22923 0.70849,0.43066 1.12526,0.60431 0.4237,0.16671 0.85783,0.34036 1.30238,0.52095 0.44454,0.17366 0.87519,0.36815 1.29196,0.58347 0.4237,0.20838 0.80226,0.46886 1.13568,0.78142 0.3334,0.30564 0.60082,0.68072 0.80226,1.12526 0.20143,0.44455 0.30215,0.98634 0.30216,1.62537 l 0,0.44802 m -45.1862,-26.9563 c -13.34957,0 -24.29127,10.87722 -24.29127,24.48179 0,13.60457 10.9417,24.48179 24.29127,24.48179 13.34956,0 24.29127,-10.87722 24.29127,-24.48179 0,-13.60457 -10.94171,-24.48179 -24.29127,-24.48179 z m 0,1.80994 c 12.69786,0 22.86237,10.22898 22.86237,22.67185 0,12.44286 -10.16451,22.67185 -22.86237,22.67185 -12.69787,0 -22.86237,-10.22899 -22.86237,-22.67185 0,-12.44287 10.1645,-22.67185 22.86237,-22.67185 z m -0.0819,10.50245 c -0.49953,3e-5 -1.01575,0.0186 -1.49516,0.0829 -0.50197,0.0529 -1.02479,0.16002 -1.57822,0.33226 -0.59559,0.17596 -1.1293,0.48773 -1.57822,0.74758 -0.45094,0.26806 -0.92931,0.59708 -1.4121,1.07984 -0.49221,0.49224 -0.78037,1.07438 -1.07983,1.66128 -0.31642,0.60755 -0.63241,1.29235 -0.83064,2.15967 -0.19431,0.83809 -0.31998,1.79212 -0.33226,2.82419 a 0.58157986,0.58157986 0 0 0 0,0.0829 0.58157986,0.58157986 0 0 0 0.0829,0.16613 0.58157986,0.58157986 0 0 0 0.24906,0.24906 0.58157986,0.58157986 0 0 0 0.16613,0.0829 0.58157986,0.58157986 0 0 0 0.0829,0 l 4.31934,0 a 0.58157986,0.58157986 0 0 0 0.0829,0 0.58157986,0.58157986 0 0 0 0.16613,-0.0829 0.58157986,0.58157986 0 0 0 0.16613,-0.0829 0.58157986,0.58157986 0 0 0 0.16613,-0.41532 l 0,-0.33226 c 0,-1.10931 0.26022,-1.9654 0.83064,-2.65806 0.56944,-0.70162 1.23807,-0.99674 2.07661,-0.99677 0.79436,3e-5 1.37669,0.30945 1.91048,0.91371 0.54865,0.59947 0.83064,1.25303 0.83064,2.15967 0,0.41511 -0.0747,0.78322 -0.24906,1.1629 -0.18899,0.40014 -0.43193,0.76419 -0.66451,0.99677 -0.25252,0.26208 -0.59317,0.5835 -0.99677,0.91371 a 0.58157986,0.58157986 0 0 0 -0.0829,0 c -0.39725,0.33518 -0.70048,0.6404 -1.07984,0.99677 -0.40716,0.39443 -0.83157,0.88726 -1.1629,1.32903 -0.35211,0.48754 -0.61834,1.06997 -0.83064,1.74435 -0.21212,0.67398 -0.33226,1.40305 -0.33226,2.24273 l 0,0.41533 a 0.58157986,0.58157986 0 0 0 0,0.0829 0.58157986,0.58157986 0 0 0 0.0829,0.16613 0.58157986,0.58157986 0 0 0 0.0829,0.16612 0.58157986,0.58157986 0 0 0 0.41532,0.16613 l 3.98709,0 a 0.58157986,0.58157986 0 0 0 0.0829,0 0.58157986,0.58157986 0 0 0 0.16613,-0.0829 0.58157986,0.58157986 0 0 0 0.16613,-0.0829 0.58157986,0.58157986 0 0 0 0.16613,-0.41532 c 0,-0.9892 0.13476,-1.70576 0.24906,-1.91048 0.13662,-0.23923 0.65327,-0.67812 1.57822,-1.32903 1.50834,-1.06543 2.55766,-2.01898 3.15644,-2.99031 0.59501,-0.96525 0.91368,-2.23166 0.91371,-3.65483 -3e-5,-2.29484 -0.83793,-4.20308 -2.40887,-5.64837 -1.56684,-1.44147 -3.6119,-2.24271 -6.06369,-2.24274 z m -2.15967,19.35398 a 0.58157986,0.58157986 0 0 0 -0.0829,0.0829 0.58157986,0.58157986 0 0 0 -0.16612,0.0829 0.58157986,0.58157986 0 0 0 -0.16613,0.41532 l 0,3.82095 a 0.58157986,0.58157986 0 0 0 0,0.0829 0.58157986,0.58157986 0 0 0 0.0829,0.16612 0.58157986,0.58157986 0 0 0 0.0829,0.16613 0.58157986,0.58157986 0 0 0 0.41532,0.16613 l 3.98709,0 a 0.58157986,0.58157986 0 0 0 0.0829,0 0.58157986,0.58157986 0 0 0 0.16613,-0.0829 0.58157986,0.58157986 0 0 0 0.16613,-0.0829 0.58157986,0.58157986 0 0 0 0.16613,-0.41532 l 0,-3.82096 a 0.58157986,0.58157986 0 0 0 0,-0.0829 0.58157986,0.58157986 0 0 0 -0.0829,-0.16613 0.58157986,0.58157986 0 0 0 -0.0829,-0.16613 0.58157986,0.58157986 0 0 0 -0.41532,-0.16613 l -3.98709,0 a 0.58157986,0.58157986 0 0 0 -0.0829,0 0.58157986,0.58157986 0 0 0 -0.0829,0 z"
       inkscape:connector-curvature="0" />
  </g>
</svg>
